<?xml version="1.0" standalone="no"?>
<!DOCTYPE svg PUBLIC "-//W3C//DTD SVG 1.1//EN" "http://www.w3.org/Graphics/SVG/1.1/DTD/svg11.dtd" >
<svg xmlns="http://www.w3.org/2000/svg" xmlns:xlink="http://www.w3.org/1999/xlink" version="1.1">
<metadata>
Created by FontForge 20170731 at Wed Sep 22 05:03:34 2021
 By Aleksey,,,
Copyright 1990 as an unpublished work by Bitstream Inc.  All rights reserved.  Confidential.
</metadata>
<defs>
<font id="NewBaskervilleITCbyBT-Roman" horiz-adv-x="1024" >
  <font-face 
    font-family="ITC New Baskerville"
    font-weight="500"
    font-stretch="normal"
    units-per-em="2048"
    panose-1="0 0 0 0 0 0 0 0 0 0"
    ascent="1638"
    descent="-410"
    x-height="899"
    cap-height="1372"
    bbox="-342 -578 2355 1960"
    underline-thickness="114"
    underline-position="-399"
    unicode-range="U+0020-FB02"
  />
<missing-glyph horiz-adv-x="561" 
 />
    <glyph glyph-name=".notdef" horiz-adv-x="561" 
 />
    <glyph glyph-name=".null" horiz-adv-x="0" 
 />
    <glyph glyph-name="nonmarkingreturn" horiz-adv-x="682" 
 />
    <glyph glyph-name="space" unicode=" " horiz-adv-x="561" 
 />
    <glyph glyph-name="exclam" unicode="!" horiz-adv-x="616" 
d="M334 340h-49q0 18 1 50.5t1 47.5q0 200 -22.5 380t-45 290t-22.5 141q0 73 30 113.5t82 40.5q51 0 81 -40.5t30 -111.5q0 -39 -21.5 -145.5t-43 -269.5t-21.5 -338v-158zM309 211q48 0 81.5 -34t33.5 -83q0 -46 -34 -80t-83 -34q-48 0 -81 32.5t-33 81.5q0 48 33.5 82.5
t82.5 34.5z" />
    <glyph glyph-name="quotedbl" unicode="&#x22;" horiz-adv-x="677" 
d="M190 864h-32l-64 457q-4 28 -4 41q0 49 22 74.5t62 25.5t63 -25.5t23 -74.5q0 -9 -4 -41zM518 864h-31l-65 457q-4 28 -4 39q0 50 22.5 76t63.5 26q40 0 62 -25.5t22 -74.5q0 -25 -2 -41z" />
    <glyph glyph-name="numbersign" unicode="#" horiz-adv-x="1574" 
d="M778 1456h133l-168 -473h287l168 473h131l-166 -473h307l-40 -115h-310l-100 -286h332l-43 -115h-330l-166 -469h-133l166 469h-287l-166 -469h-131l166 469h-324l43 115h322l100 286h-348l43 115h348zM700 868l-100 -286h289l102 286h-291z" />
    <glyph glyph-name="dollar" unicode="$" horiz-adv-x="1124" 
d="M428 1520h55v-154q37 2 78 2q33 0 72 -2v154h55v-158q131 -18 206 -78t75 -137q0 -35 -19.5 -54.5t-54.5 -19.5q-36 0 -56 21.5t-20 60.5v2q0 3 3 23.5t3 36.5q0 47 -30.5 68t-106.5 30v-539q167 -75 238 -162t71 -223q0 -149 -80 -247t-229 -132v-303h-55v291
q-43 -4 -76 -4q-7 0 -31.5 1t-42.5 1v-289h-55v289q-156 10 -249 70.5t-93 134.5q0 39 23 64.5t63 25.5q44 0 68 -24.5t24 -67.5q0 -17 -3 -38.5t-3 -25.5q0 -36 44.5 -61t125.5 -31v645q-158 71 -227.5 146t-69.5 186q0 121 76.5 207.5t220.5 126.5v164zM633 1323
q-16 2 -51 2q-55 0 -99 -8v-449q81 -35 150 -67v522zM428 1305q-83 -26 -126.5 -80t-43.5 -129q0 -66 41 -114.5t129 -88.5v412zM483 666v-623q62 -4 68 -4q35 0 82 6v557q-66 32 -150 64zM688 571v-505q184 52 184 256q0 86 -44 145.5t-140 103.5z" />
    <glyph glyph-name="percent" unicode="%" horiz-adv-x="1634" 
d="M1237 1473h76l-920 -1575h-88l813 1386q-109 -70 -248 -70q-90 0 -178 39q21 -79 21 -153q0 -61 -23 -142t-65 -155q-111 -193 -293 -193q-121 0 -201 87.5t-80 226.5q0 127 62.5 239t164 177t211.5 65q16 0 30.5 -1t28.5 -5t23.5 -6t22.5 -9.5t18.5 -9.5t18.5 -11.5
t15 -11t16 -13.5l14 -11q75 -63 192 -63q114 0 215.5 56.5t153.5 152.5zM670 1120q0 106 -46 171t-112 65q-77 0 -149.5 -74.5t-117 -195.5t-44.5 -250q0 -77 45.5 -128t115.5 -51q121 0 214.5 138t93.5 325zM911 287q0 131 61.5 242.5t163 175t218.5 63.5q105 0 164 -73.5
t59 -211.5q0 -140 -52 -260.5t-136 -189t-177 -68.5q-128 0 -214.5 87.5t-86.5 234.5zM1374 721q-127 0 -215 -162q-45 -80 -70.5 -173t-25.5 -157q0 -209 168 -209q119 0 213 137.5t94 334.5q0 106 -46.5 167.5t-117.5 61.5z" />
    <glyph glyph-name="ampersand" unicode="&#x26;" horiz-adv-x="1546" 
d="M584 766q186 144 186 342q0 117 -49 181.5t-133 64.5q-73 0 -122.5 -58.5t-49.5 -152.5q0 -145 168 -377zM612 729q184 -251 295 -362q43 62 90.5 143.5t76.5 130.5t65.5 96.5t77 69.5t90.5 22q63 0 106 -38t43 -101q0 -48 -31 -78t-82 -30q-47 0 -68.5 26t-21.5 80
q0 5 2 17t2 18t-7.5 11t-16.5 5q-28 0 -57 -35.5t-54 -87t-74.5 -135.5t-103.5 -155q226 -244 338 -244q80 0 160 80l35 -23q-41 -78 -121 -122t-180 -44q-93 0 -171 46t-188 153q-85 -100 -192.5 -152.5t-227.5 -52.5q-135 0 -214 74.5t-79 187.5q0 111 85.5 222t250.5 204
q-145 216 -145 387q0 151 94 256t223 105q127 0 205 -76.5t78 -191.5q0 -200 -283 -406zM463 614q-91 -53 -140 -131t-49 -164q0 -107 63 -181.5t167 -74.5q150 0 278 146q-193 199 -319 405z" />
    <glyph glyph-name="quotesingle" unicode="'" horiz-adv-x="348" 
d="M190 864h-32l-66 457q-2 14 -2 39q0 102 84 102q40 0 63 -25.5t23 -74.5q0 -9 -4 -41z" />
    <glyph glyph-name="parenleft" unicode="(" horiz-adv-x="675" 
d="M561 1405l41 -37q-157 -173 -231 -387t-74 -483q0 -281 71 -493.5t234 -395.5l-43 -37q-420 420 -420 909q0 250 101.5 467.5t320.5 456.5z" />
    <glyph glyph-name="parenright" unicode=")" horiz-adv-x="675" 
d="M137 1405q422 -425 422 -909q0 -249 -102 -467.5t-320 -456.5l-41 39q157 173 230 385.5t73 482.5q0 282 -70.5 494.5t-232.5 394.5z" />
    <glyph glyph-name="asterisk" unicode="*" 
d="M524 1014q49 26 90.5 67.5t63.5 74t54.5 57t70.5 24.5q34 0 55 -23.5t21 -60.5q0 -35 -30 -61t-87 -35q-4 -1 -32.5 -3.5t-51 -6.5t-62 -18.5t-79.5 -37.5q49 -30 95.5 -44t93 -18.5t56.5 -6.5q45 -12 71 -39t26 -58q0 -33 -23.5 -56.5t-58.5 -23.5q-33 0 -63 24
t-52.5 56.5t-65 75t-92.5 70.5v-17q0 -57 17.5 -112t35 -96t17.5 -64q0 -47 -22 -73.5t-60 -26.5q-35 0 -58.5 24t-23.5 64q0 30 17.5 74.5t35 100t17.5 113.5v13q-49 -26 -90.5 -67.5t-63.5 -74t-54.5 -57t-70.5 -24.5q-33 0 -54.5 23t-21.5 56q0 36 26 61.5t75 35.5
q1 0 48 4.5t94 18.5t99 44q-49 30 -95 44t-94 20t-56 8q-97 25 -97 94q0 34 24 58t58 24q27 0 50.5 -15t45 -40.5t43.5 -53.5t57.5 -60.5t76.5 -55.5v16q0 56 -17.5 110.5t-35 97t-17.5 69.5q0 43 22.5 69.5t59.5 26.5q35 0 58.5 -24t23.5 -64q0 -30 -17.5 -73.5t-35 -99.5
t-17.5 -116v-12z" />
    <glyph glyph-name="plus" unicode="+" horiz-adv-x="1705" 
d="M795 1221h118v-551h539v-117h-539v-553h-118v553h-541v117h541v551z" />
    <glyph glyph-name="comma" unicode="," horiz-adv-x="561" 
d="M125 -307l-27 33q102 63 156.5 133.5t54.5 120.5q0 17 -8 36q-41 -18 -63 -18q-46 0 -75.5 29t-29.5 75q0 47 32.5 81t80.5 34q71 0 115.5 -46.5t44.5 -121.5q0 -105 -73.5 -200.5t-207.5 -155.5z" />
    <glyph glyph-name="hyphen" unicode="-" horiz-adv-x="679" 
d="M94 526h496v-139h-496v139z" />
    <glyph glyph-name="period" unicode="." horiz-adv-x="561" 
d="M281 215q47 0 80.5 -34t33.5 -81t-32.5 -80.5t-81.5 -33.5q-48 0 -81.5 32.5t-33.5 81.5q0 47 34 81t81 34z" />
    <glyph glyph-name="slash" unicode="/" horiz-adv-x="557" 
d="M469 1403h80l-518 -1593h-80z" />
    <glyph glyph-name="zero" unicode="0" horiz-adv-x="1124" 
d="M104 676q0 213 64 381.5t169.5 258t231.5 89.5q93 0 177.5 -54t147.5 -148t100.5 -230t37.5 -291q0 -207 -62.5 -372.5t-168 -255t-232.5 -89.5q-112 0 -191.5 55t-150.5 175q-123 212 -123 481zM567 1360q-136 0 -200 -165.5t-64 -506.5q0 -345 65 -511.5t203 -166.5
q140 0 201.5 162t61.5 508q0 347 -64 513.5t-203 166.5z" />
    <glyph glyph-name="one" unicode="1" horiz-adv-x="1124" 
d="M647 1411h23q0 -20 -1 -63.5t-1 -67.5q0 -45 1 -93.5t1 -51.5v-936q0 -100 37.5 -132.5t158.5 -33.5v-43q-188 8 -291 8q-101 0 -286 -8v43q121 1 159.5 33.5t38.5 132.5v950q0 3 -1 11t-1 14q0 66 -39.5 88t-140.5 22h-20v41q241 19 362 86z" />
    <glyph glyph-name="two" unicode="2" horiz-adv-x="1124" 
d="M289 174h678l-60 -287h-37q4 40 4 60q0 38 -15.5 45.5t-80.5 7.5h-672q31 117 318 410q19 20 55.5 56.5t55 55.5t50.5 53.5t48.5 55.5t41 55t38 60.5t29.5 63t23.5 70.5t13 75t5.5 85q0 148 -76 233t-208 85q-103 0 -173.5 -69t-70.5 -169q0 -95 50.5 -154t129.5 -59
q48 0 94 27q-9 -56 -55 -87.5t-121 -31.5q-102 0 -167.5 69.5t-65.5 174.5q0 147 114.5 246.5t303.5 99.5q204 0 328 -108t124 -285q0 -47 -9.5 -90.5t-21.5 -77t-39.5 -71.5t-47.5 -62t-62.5 -61.5t-67 -57t-78.5 -62t-81 -63.5q-68 -54 -101.5 -82.5t-78.5 -69t-71.5 -74
t-43.5 -67.5z" />
    <glyph glyph-name="three" unicode="3" horiz-adv-x="1124" 
d="M584 786v-6h26q172 0 273.5 -89t101.5 -236q0 -128 -74 -240.5t-199 -180t-268 -67.5q-144 0 -235.5 60.5t-91.5 146.5q0 39 26.5 62.5t69.5 23.5q42 0 61 -25t39 -88q22 -68 60.5 -99.5t107.5 -31.5q146 0 222.5 100.5t76.5 293.5q0 329 -211 329q-44 0 -81.5 -25
t-58.5 -54.5t-43 -54.5t-38 -25q-19 0 -32 11.5t-13 24.5q0 15 6 27t21 23.5t30.5 20.5t44.5 25t52 31q87 54 136.5 103.5t78 120.5t28.5 166q0 111 -49 168t-141 57q-95 0 -156 -57t-61 -144q0 -62 36.5 -103.5t94.5 -41.5q38 0 90 22q-6 -46 -49.5 -75t-108.5 -29
q-85 0 -136.5 51t-51.5 125q0 51 28 103.5t77 96.5t124 71.5t160 27.5q153 0 243.5 -74t90.5 -180q0 -206 -307 -365z" />
    <glyph glyph-name="four" unicode="4" horiz-adv-x="1124" 
d="M760 1407h47v-885h246v-69h-250v-269q0 -62 15 -90.5t57.5 -41t132.5 -13.5v-43q-252 6 -289 6q-151 0 -307 -6v43q123 3 167 29.5t44 107.5v273h-580v49zM631 1155l-504 -633h504v633z" />
    <glyph glyph-name="five" unicode="5" horiz-adv-x="1124" 
d="M842 1421h22q-9 -130 -108.5 -206t-266.5 -76q-99 0 -184 24l-22 -430q141 144 313 144q175 0 280 -102.5t105 -278.5q0 -152 -71 -273t-194 -187.5t-274 -66.5t-243.5 61t-92.5 142q0 39 26 64.5t63 25.5q17 0 31 -5.5t22 -11t16.5 -21t11.5 -23t10.5 -31t10.5 -31.5
q22 -64 62 -91.5t114 -27.5q151 0 231 116t80 339q0 173 -59 257.5t-188 84.5q-78 0 -145 -45.5t-87 -114.5q0 -20 3 -43.5t3 -27.5q0 -24 -11.5 -37.5t-29.5 -13.5t-30.5 13.5t-12.5 33.5q0 26 5.5 64.5t5.5 45.5l36 713h25q60 -49 125 -74.5t154 -25.5q92 0 152.5 25.5
t111.5 90.5z" />
    <glyph glyph-name="six" unicode="6" horiz-adv-x="1124" 
d="M301 713q81 91 160 133.5t174 42.5q184 0 295.5 -115.5t111.5 -310.5q0 -138 -61 -252t-172 -180t-250 -66q-208 0 -333.5 171.5t-125.5 475.5q0 189 52.5 354t142.5 273q70 86 155 125t199 39q133 0 216 -52t83 -124q0 -35 -26 -58.5t-64 -23.5q-41 0 -65 24t-52 78
q-29 55 -63 80t-88 25q-136 0 -212.5 -161t-76.5 -466v-12zM303 639q-4 -118 -4 -127q0 -256 65 -378t211 -122q126 0 197.5 111.5t71.5 318.5q0 196 -58 289.5t-186 93.5q-80 0 -157 -47t-140 -139z" />
    <glyph glyph-name="seven" unicode="7" horiz-adv-x="1124" 
d="M240 1522h45q-11 -59 -11 -88q0 -44 18.5 -55t65.5 -11h646v-22q-88 -209 -143.5 -349t-123 -349.5t-110.5 -405.5q-35 -157 -54 -201q-40 -73 -104 -76q-41 0 -65.5 26t-24.5 66q0 91 111 332t374 748l35 63h-537q-84 0 -119.5 -46.5t-70.5 -186.5h-47z" />
    <glyph glyph-name="eight" unicode="8" horiz-adv-x="1124" 
d="M694 791q125 106 125 280q0 134 -71.5 213.5t-192.5 79.5q-114 0 -190 -68t-76 -172q0 -100 97 -177t308 -156zM739 766q142 -84 207.5 -175t65.5 -214q0 -178 -129 -294t-322 -116q-202 0 -322 94t-120 248q0 117 70 208.5t223 184.5q-250 136 -250 336q0 147 114.5 256
t284.5 109q174 0 282.5 -93t108.5 -223q0 -178 -213 -321zM457 682q-99 -65 -143 -148.5t-44 -207.5q0 -146 76 -228t211 -82q149 0 234.5 79.5t85.5 211.5q0 53 -16 95t-41 72t-74 61.5t-94.5 54.5t-123.5 59q-46 21 -71 33z" />
    <glyph glyph-name="nine" unicode="9" horiz-adv-x="1124" 
d="M840 729q1 28 2 59t1.5 47t0.5 23q0 255 -66 377.5t-211 122.5q-126 0 -197 -111.5t-71 -318.5q0 -197 57.5 -291t184.5 -94q80 0 158 47t141 139zM842 657q-85 -94 -164 -135t-182 -41q-171 0 -283.5 115t-112.5 299q0 222 136 365t348 143q208 0 333 -171.5t125 -475.5
q0 -190 -52 -353.5t-142 -271.5q-71 -86 -155.5 -126t-198.5 -40q-133 0 -216 53t-83 125q0 35 25.5 57.5t64.5 22.5q40 0 63 -24t51 -78q53 -105 154 -105q136 0 212.5 161.5t76.5 467.5v12z" />
    <glyph glyph-name="colon" unicode=":" horiz-adv-x="616" 
d="M309 899q47 0 80 -34t33 -81q0 -46 -33 -79t-82 -33q-48 0 -80 31.5t-32 80.5q0 47 33.5 81t80.5 34zM309 215q47 0 80 -34t33 -81t-33 -80.5t-82 -33.5q-48 0 -80 32.5t-32 81.5q0 47 33.5 81t80.5 34z" />
    <glyph glyph-name="semicolon" unicode=";" horiz-adv-x="616" 
d="M299 901q47 0 79 -33.5t32 -79.5q0 -44 -32.5 -78t-80.5 -34q-46 0 -78.5 32.5t-32.5 79.5q0 45 32.5 79t80.5 34zM176 -307l-24 33q102 63 156 133.5t54 120.5q0 13 -10 36q-41 -18 -61 -18q-46 0 -75.5 29t-29.5 75q0 47 32.5 81t80.5 34q71 0 114.5 -46.5t43.5 -121.5
q0 -105 -73.5 -200.5t-207.5 -155.5z" />
    <glyph glyph-name="less" unicode="&#x3c;" horiz-adv-x="1705" 
d="M1442 1145v-127l-1000 -408l1000 -405v-129l-1178 483v103z" />
    <glyph glyph-name="equal" unicode="=" horiz-adv-x="1705" 
d="M254 860h1198v-117h-1198v117zM254 477h1198v-117h-1198v117z" />
    <glyph glyph-name="greater" unicode="&#x3e;" horiz-adv-x="1705" 
d="M264 1145l1178 -483v-103l-1178 -483v129l1000 405l-1000 408v127z" />
    <glyph glyph-name="question" unicode="?" horiz-adv-x="901" 
d="M354 553v-236h-49v410q37 -4 101 -4q159 0 232 58.5t73 187.5q0 120 -71.5 201t-184.5 81q-37 0 -97.5 -9t-83.5 -9q-108 0 -108 82q0 40 34.5 65t92.5 25q92 0 179.5 -41t153.5 -111t106 -168.5t40 -207.5q0 -155 -100 -239.5t-287 -84.5h-31zM340 209q47 0 81 -33.5
t34 -83.5q0 -48 -33 -82.5t-82 -34.5q-48 0 -82.5 33.5t-34.5 83.5q0 49 34.5 83t82.5 34z" />
    <glyph glyph-name="at" unicode="@" horiz-adv-x="2019" 
d="M1098 965q-56 0 -101 -31.5t-90 -99.5q-74 -112 -115.5 -237.5t-41.5 -221.5q0 -94 41 -147.5t108 -53.5q131 0 242 178q59 96 92 204.5t33 195.5q0 94 -47.5 153.5t-120.5 59.5zM1190 336q-123 -211 -309 -211q-125 0 -201 92t-76 244q0 107 48.5 214.5t138.5 194.5
q66 65 146 100.5t153 35.5q177 0 221 -195l53 180h143l-170 -610q-18 -65 -18 -109q0 -47 25.5 -74.5t68.5 -27.5q32 0 77 17t87 49q121 90 186.5 230.5t65.5 315.5q0 276 -203 455q-90 79 -216 122.5t-267 43.5q-374 0 -617 -234q-264 -255 -264 -663q0 -174 57 -304
t181 -235q231 -196 581 -196q330 0 613 206l30 -36q-302 -222 -655 -222q-374 0 -616 185q-151 114 -229.5 275.5t-78.5 357.5q0 203 85.5 380.5t250.5 313.5q265 221 635 221q347 0 553.5 -187t206.5 -499q0 -158 -58 -297.5t-163 -235.5q-117 -108 -258 -108
q-195 0 -207 211z" />
    <glyph glyph-name="A" unicode="A" horiz-adv-x="1355" 
d="M674 1405h47l469 -1178q39 -99 85.5 -140t143.5 -48v-39q-145 8 -293 8q-161 0 -292 -8v39q85 6 124 25t39 55q0 51 -30 131l-95 250h-518l-90 -226q-26 -71 -26 -116q0 -58 37 -87t114 -32v-39q-139 8 -223 8q-116 0 -217 -8v39q104 11 153 62.5t103 181.5zM623 1151
l-246 -592h475z" />
    <glyph glyph-name="B" unicode="B" horiz-adv-x="1390" 
d="M96 1372q152 -8 209 -8q76 0 190.5 4t153.5 4q500 0 500 -328q0 -240 -334 -307q471 -49 471 -375q0 -182 -141.5 -274t-421.5 -92q-7 0 -60 2t-146 4t-198 2q-124 0 -223 -6v45q65 2 102.5 10.5t59.5 31.5t28.5 55t6.5 89v910q0 57 -6.5 89t-28.5 55t-59.5 31.5
t-102.5 10.5v47zM506 745h24q216 0 308 63t92 220q0 299 -303 299q-59 0 -84 -7t-31 -20.5t-6 -48.5v-506zM506 238q0 -97 52.5 -144t168.5 -47q148 0 234 86t86 238q0 182 -110.5 255.5t-354.5 73.5h-76v-462z" />
    <glyph glyph-name="C" unicode="C" horiz-adv-x="1452" 
d="M1243 1268l27 98h26l17 -381h-41q-38 182 -152.5 278.5t-290.5 96.5q-223 0 -356 -183.5t-133 -510.5q0 -301 136.5 -474.5t361.5 -173.5q178 0 296.5 117t159.5 338h37v-440h-24l-37 102q-125 -85 -241 -126.5t-243 -41.5q-202 0 -361 85.5t-248 242.5t-89 360
q0 214 91.5 384t258 266t379.5 96q231 0 426 -133z" />
    <glyph glyph-name="D" unicode="D" horiz-adv-x="1548" 
d="M96 -2v45q65 2 102.5 10.5t59.5 31.5t28.5 55t6.5 89v910q0 57 -6.5 89t-28.5 55t-59.5 31.5t-102.5 10.5v47q156 -4 211 -4q89 0 208 4t149 4q190 0 319 -32.5t246 -131.5q229 -192 229 -538q0 -678 -747 -678q-61 0 -191 3t-198 3q-148 0 -226 -4zM504 1219v-891
q0 -75 10 -124t36.5 -86.5t75.5 -54t124 -16.5q245 0 353.5 141.5t108.5 448.5q0 356 -132 525t-414 169h-38t-31.5 -1t-27.5 -3t-20.5 -5.5t-18 -9.5t-11.5 -14t-9 -19.5t-4 -26t-2 -33.5z" />
    <glyph glyph-name="E" unicode="E" horiz-adv-x="1310" 
d="M94 1372q177 -8 453 -8q350 0 579 8v-295h-41q-9 66 -30 110t-50.5 70.5t-82 40.5t-108 18.5t-144.5 4.5h-70t-45 -4.5t-31.5 -9t-14.5 -19.5t-8.5 -31t-0.5 -47v-465q16 -2 49 -2q145 0 213.5 61t79.5 197h43q-8 -123 -8 -270q0 -146 8 -266h-43q-9 123 -76 175t-209 52
q-37 0 -57 -2v-338v-47q0 -79 10.5 -124t44 -76t91 -41.5t155.5 -10.5q188 0 277 56t110 204h41l-10 -313q-470 6 -693 6q-303 0 -432 -8v45q65 2 102.5 10.5t59.5 31.5t28.5 55t6.5 89v910q0 57 -6.5 89t-28.5 55t-59.5 31.5t-102.5 10.5v47z" />
    <glyph glyph-name="F" unicode="F" horiz-adv-x="1216" 
d="M96 1372q151 -8 355 -8q351 0 679 12l27 -301h-33q-40 147 -137.5 195.5t-314.5 48.5h-39q-36 0 -54 -0.5t-36 -7t-24 -13.5t-11 -28t-5.5 -41t-0.5 -62v-22v-426h41q161 0 232 56.5t83 199.5h45q-10 -153 -10 -270t10 -267h-45q-9 127 -77 178.5t-216 51.5q-40 0 -63 -2
v-437v-2q0 -74 16 -110.5t61 -54t136 -19.5v-45q-136 8 -316 8q-175 0 -303 -8v45q65 2 102.5 10.5t59.5 31.5t28.5 55t6.5 89v910q0 99 -32.5 142.5t-133.5 43.5h-31v47z" />
    <glyph glyph-name="G" unicode="G" horiz-adv-x="1562" 
d="M1243 1268l39 94h21l-17 -373h-24q-25 181 -139.5 278t-301.5 97q-232 0 -359.5 -179.5t-127.5 -514.5q0 -311 126.5 -481.5t344.5 -170.5q171 0 263.5 79t92.5 229v47q0 81 -39 118t-121 37h-14v45h539v-45q-90 -10 -116 -35t-26 -96v-250q-95 -3 -153 -30
q-19 -9 -88 -45t-109.5 -53.5t-116.5 -35.5t-155 -18q-193 0 -348 84t-243.5 239.5t-88.5 354.5q0 222 90.5 395t256.5 269t380 96q125 0 228.5 -31.5t205.5 -103.5z" />
    <glyph glyph-name="H" unicode="H" horiz-adv-x="1751" 
d="M96 1372q128 -8 303 -8t303 8v-47q-65 -2 -102.5 -10.5t-59 -31.5t-28 -55t-6.5 -89v-398h739v398q0 57 -6.5 89t-28 55t-59 31.5t-102.5 10.5v47q125 -8 303 -8q175 0 303 8v-47q-65 -2 -102.5 -10.5t-59.5 -31.5t-28.5 -55t-6.5 -89v-910q0 -57 6.5 -89t28.5 -55
t59.5 -31.5t102.5 -10.5v-45q-125 8 -303 8t-303 -8v45q65 2 102.5 10.5t59 31.5t28 55t6.5 89v449h-739v-449q0 -57 6.5 -89t28 -55t59 -31.5t102.5 -10.5v-45q-125 8 -303 8t-303 -8v45q65 2 102.5 10.5t59.5 31.5t28.5 55t6.5 89v910q0 57 -6.5 89t-28.5 55t-59.5 31.5
t-102.5 10.5v47z" />
    <glyph glyph-name="I" unicode="I" horiz-adv-x="800" 
d="M96 1372q128 -8 303 -8t303 8v-47q-65 -2 -102.5 -10.5t-59 -31.5t-28 -55t-6.5 -89v-910q0 -57 6.5 -89t28 -55t59 -31.5t102.5 -10.5v-45q-125 8 -303 8t-303 -8v45q65 2 102.5 10.5t59.5 31.5t28.5 55t6.5 89v910q0 57 -6.5 89t-28.5 55t-59.5 31.5t-102.5 10.5v47z
" />
    <glyph glyph-name="J" unicode="J" horiz-adv-x="884" 
d="M141 1372q125 -8 303 -8q159 0 304 8v-47q-65 -2 -102.5 -10.5t-59.5 -31.5t-28.5 -55t-6.5 -89v-1217q0 -114 -9.5 -181.5t-45.5 -127.5q-104 -170 -394 -170q-149 0 -228 41.5t-79 114.5q0 41 21.5 63.5t58.5 22.5q35 0 52 -17.5t28 -58.5q19 -68 54.5 -96.5
t105.5 -28.5q45 0 79.5 8t58 20.5t39.5 36t25 46t14 61t6 70t1 81.5v1332q0 57 -6.5 89t-28.5 55t-59.5 31.5t-102.5 10.5v47z" />
    <glyph glyph-name="K" unicode="K" horiz-adv-x="1464" 
d="M96 1372q128 -8 303 -8t303 8v-47q-65 -2 -102.5 -10.5t-59 -31.5t-28 -55t-6.5 -89v-543l90 90q188 191 305 354.5t117 212.5q0 74 -113 74q-5 0 -15.5 -1t-15.5 -1v47q176 -8 236 -8q102 0 193 8v-47h-19q-37 0 -68.5 -13.5t-63 -46t-57 -64.5t-70.5 -91t-83 -104
l-172 -203l463 -557q91 -111 143.5 -157t110.5 -46h12v-45q-156 8 -274 8q-191 0 -330 -8v45h27q129 0 129 61q0 67 -277 394l-131 155l-137 -125v-299q0 -57 6.5 -89t28 -55t59 -31.5t102.5 -10.5v-45q-125 8 -303 8t-303 -8v45q65 2 102.5 10.5t59.5 31.5t28.5 55t6.5 89
v910q0 57 -6.5 89t-28.5 55t-59.5 31.5t-102.5 10.5v47z" />
    <glyph glyph-name="L" unicode="L" horiz-adv-x="1325" 
d="M96 1372q128 -8 303 -8t303 8v-47q-65 -2 -102.5 -10.5t-59 -31.5t-28 -55t-6.5 -89v-787v-35q0 -56 3.5 -91t15.5 -68t32.5 -50.5t57 -31t87 -18.5t123.5 -5q213 0 308.5 62.5t105.5 226.5h45v-342q-29 0 -79 2t-70 2q-11 0 -195 1t-358 1q-369 0 -486 -8v45
q65 2 102.5 10.5t59.5 31.5t28.5 55t6.5 89v910q0 57 -6.5 89t-28.5 55t-59.5 31.5t-102.5 10.5v47z" />
    <glyph glyph-name="M" unicode="M" horiz-adv-x="1886" 
d="M96 1372q216 -6 217 -6q75 0 189 6l448 -1053l451 1053q129 -6 186 -6q1 0 211 6l2 -47q-11 2 -31 2q-95 0 -136.5 -49.5t-41.5 -159.5v-889v-14q0 -98 37 -134.5t146 -37.5v-45q-70 6 -293 6q-229 0 -295 -6v45q65 2 102.5 10.5t59 31.5t28 55t6.5 89v949l-495 -1164
h-27l-504 1174v-920v-26q0 -60 5.5 -92.5t24.5 -59t56 -36t101 -11.5v-45q-72 6 -228 6q-123 0 -206 -6v45q45 1 75 5.5t51 17.5t32 26.5t17 43t7.5 56.5t1.5 76v979q-13 42 -56 60t-126 18h-15v47z" />
    <glyph glyph-name="N" unicode="N" horiz-adv-x="1662" 
d="M1122 1374q92 -6 219 -6q145 0 215 6v-45q-34 -1 -60 -4t-46 -10.5t-33 -15t-22 -23.5t-14 -29t-7.5 -39.5t-3 -46.5t-0.5 -57v-1124h-61l-953 1173v-885v-26q0 -60 5.5 -92.5t24.5 -59t56 -36t101 -11.5v-45q-72 6 -228 6q-123 0 -206 -6v45q45 1 75 5.5t51 17.5
t32 26.5t17 43t7.5 56.5t1.5 76v953q-33 57 -81 80.5t-128 23.5v47q126 -6 195 -6q30 0 153 6l877 -1073v805q0 48 -1.5 76t-8 56.5t-18 43t-33 27t-51.5 17t-75 5.5v45z" />
    <glyph glyph-name="O" unicode="O" horiz-adv-x="1675" 
d="M850 1403q140 0 272 -47.5t234 -136.5q229 -198 229 -535q0 -146 -56.5 -281t-156.5 -231q-100 -94 -243.5 -149.5t-286.5 -55.5q-316 0 -531 197q-221 199 -221 504q0 263 162 458q111 133 265.5 205t332.5 72zM1337 686q0 318 -135.5 496t-359.5 178
q-219 0 -359.5 -182.5t-140.5 -487.5q0 -306 139 -493t359 -187q217 0 357 180.5t140 495.5z" />
    <glyph glyph-name="P" unicode="P" horiz-adv-x="1222" 
d="M96 1372q117 -6 240 -6q46 0 144 2t147 2q273 0 412 -92.5t139 -271.5q0 -172 -140 -270.5t-395 -98.5q-31 0 -137 8v-416q0 -57 6.5 -89t28 -55t59 -31.5t102.5 -10.5v-45q-125 8 -303 8t-303 -8v45q65 2 102.5 10.5t59.5 31.5t28.5 55t6.5 89v910q0 57 -6.5 89
t-28.5 55t-59.5 31.5t-102.5 10.5v47zM506 696q95 -10 133 -10q153 0 229 77.5t76 237.5q0 165 -80 245.5t-243 80.5q-60 0 -87.5 -15.5t-27.5 -54.5v-561z" />
    <glyph glyph-name="Q" unicode="Q" horiz-adv-x="1675" 
d="M858 1364q-235 0 -375.5 -183.5t-140.5 -494.5q0 -313 131 -493.5t350 -180.5q230 0 373 180.5t143 493.5q0 310 -136 494t-345 184zM670 -133h20q148 0 287 -45q65 -21 148 -61t147.5 -64.5t124.5 -24.5q62 0 109.5 22t69 48t40 48t29.5 22q18 0 18 -29
q0 -53 -22 -108.5t-61.5 -102.5t-103 -77t-137.5 -30q-38 0 -74 8.5t-60.5 18t-58.5 33t-49 35.5t-52.5 45t-49.5 43q-103 88 -182 130t-151 42q-48 0 -91.5 -18.5t-69 -40t-52 -40t-43.5 -18.5q-14 0 -24.5 9.5t-10.5 19.5q0 31 28 53t70.5 37t118 55t145.5 94
q-291 32 -467 227t-176 482q0 257 166 453q233 270 590 270q162 0 301.5 -55t235.5 -149.5t151 -224t55 -276.5q0 -156 -74.5 -301t-220 -257t-336.5 -158q-38 -10 -78 -14t-63 -6t-33 -9q-9 -5 -114 -86z" />
    <glyph glyph-name="R" unicode="R" horiz-adv-x="1435" 
d="M506 680h53q218 0 312 73.5t94 252.5q0 331 -351 331q-64 0 -86 -15.5t-22 -64.5v-577zM809 668q67 -55 100 -97l351 -424q38 -45 93 -76.5t101 -31.5v-45q-86 10 -164 10q-106 0 -176 -6l-471 588q-21 26 -45 35.5t-63 9.5h-29v-402q0 -57 6.5 -89t28 -55t59 -31.5
t102.5 -10.5v-45q-125 8 -303 8t-303 -8v45q65 2 102.5 10.5t59.5 31.5t28.5 55t6.5 89v910q0 56 -7 88t-28.5 55.5t-59.5 32.5t-102 10v47q132 -6 197 -6q88 0 220.5 6t178.5 6q259 0 381.5 -85.5t122.5 -276.5q0 -144 -101.5 -237.5t-285.5 -110.5z" />
    <glyph glyph-name="S" unicode="S" horiz-adv-x="1099" 
d="M844 1298l35 93h32q-6 -91 -6 -177v-34q0 -6 0.5 -24.5t1.5 -54.5t2 -71h-30q-55 167 -138.5 246.5t-210.5 79.5q-122 0 -190 -63t-68 -169q0 -43 15 -78.5t36.5 -59.5t63.5 -49.5t75.5 -41.5t93.5 -43q21 -9 32 -14q85 -37 145 -70.5t113.5 -75.5t85.5 -87.5
t50.5 -104.5t18.5 -129q0 -178 -139 -294t-350 -116q-213 0 -375 143l-20 -90h-33q2 70 2 201q0 142 -2 195h33q39 -192 142 -294t253 -102q140 0 220.5 74.5t80.5 204.5q0 46 -9.5 83.5t-32.5 68.5t-47 53.5t-69.5 47.5t-81.5 41.5t-100 43.5q-188 79 -272 164t-84 227
q0 171 113 277t292 106q83 0 158 -26t164 -81z" />
    <glyph glyph-name="T" unicode="T" horiz-adv-x="1439" 
d="M4 1382q352 -12 760 -12q304 0 670 12v-305h-33q0 43 -5.5 76.5t-18 59t-27.5 43.5t-40.5 30.5t-51 20t-65.5 11.5t-77 5.5t-92 1.5h-94q-68 0 -105 -2v-1094q0 -75 14.5 -111.5t56.5 -54.5t128 -20v-45q-125 8 -305 8q-178 0 -303 -8v45q65 2 103 10.5t59.5 31.5
t28.5 55.5t7 88.5v1094q-37 2 -104 2h-94q-55 0 -92 -1.5t-77 -5.5t-65.5 -11.5t-51 -20t-40.5 -30.5t-27.5 -43.5t-18 -59t-5.5 -76.5h-35v305z" />
    <glyph glyph-name="U" unicode="U" horiz-adv-x="1658" 
d="M1137 1374q85 -6 202 -6q144 0 226 6v-49q-12 2 -35 2q-28 0 -50 -3.5t-38 -13t-27 -18.5t-18 -27.5t-11 -31t-5.5 -39t-2 -42t-0.5 -48.5v-543q0 -157 -28 -266t-92.5 -184t-169 -109.5t-257.5 -34.5q-274 0 -406 106.5t-132 329.5v736q0 57 -6.5 89t-28.5 55
t-59.5 31.5t-102.5 10.5v47q128 -8 303 -8t303 8v-47h-30q-100 0 -133 -44.5t-33 -141.5v-707q0 -201 90 -297t285 -96q229 0 334.5 114t105.5 357v594q0 59 -2.5 90t-12 61t-30 42.5t-53.5 20t-86 7.5v49z" />
    <glyph glyph-name="V" unicode="V" horiz-adv-x="1339" 
d="M512 1372v-47q-8 0 -18 1t-11 1q-69 0 -99 -17.5t-30 -62.5q0 -41 68 -229l291 -799l202 496q172 418 172 518q0 54 -29.5 74t-103.5 20q-2 0 -11.5 -1t-18.5 -1v47q99 -8 219 -8q126 0 217 8v-47q-10 2 -33 2q-66 0 -109 -58.5t-100 -197.5l-452 -1104h-45l-490 1250
q-24 61 -63 84.5t-109 23.5h-22v47q180 -8 268 -8q143 0 307 8z" />
    <glyph glyph-name="W" unicode="W" horiz-adv-x="1828" 
d="M-47 1372q196 -8 268 -8q105 0 297 8v-47h-43q-127 0 -127 -90q0 -39 17 -100l264 -893l342 1130h55l342 -1106l191 613q67 221 67 342q0 104 -137 104h-23v47q94 -6 236 -6q46 0 172 6v-47h-10q-39 0 -65 -11t-46 -41t-32 -61t-31 -92l-359 -1140h-78l-323 1087
l-332 -1087h-78l-387 1202q-27 85 -60 114t-110 29h-10v47z" />
    <glyph glyph-name="X" unicode="X" horiz-adv-x="1544" 
d="M39 1372q180 -8 266 -8q145 0 309 8v-47q-14 2 -39 2q-110 0 -110 -45q0 -43 55 -115l279 -360l141 174q69 86 109.5 165t40.5 111q0 40 -32 54t-108 14v47q101 -8 219 -8q121 0 217 8v-47h-10q-65 0 -111.5 -35.5t-113.5 -120.5l-315 -407l487 -627q38 -50 79 -71
t99 -21v-45q-141 8 -272 8t-314 -8v45q79 0 115.5 9.5t36.5 33.5q0 28 -13.5 53t-43.5 64l-310 399l-233 -303q-86 -114 -86 -180q0 -44 33 -59t114 -17v-43q-114 6 -227 6q-149 0 -223 -6v43h10q63 0 120 40t122 126l329 440l-446 584q-38 50 -78.5 71t-95.5 21v47z" />
    <glyph glyph-name="Y" unicode="Y" horiz-adv-x="1327" 
d="M1319 1372v-47h-10q-46 0 -81 -21t-51.5 -43t-50.5 -78q-2 -3 -3.5 -5t-3 -5t-3.5 -6l-377 -612v-326q0 -75 14.5 -111.5t56.5 -54.5t128 -20v-45q-125 8 -305 8q-178 0 -303 -8v45q65 2 103 10.5t59.5 31.5t28.5 55.5t7 88.5v312l-333 604q-57 106 -81 133
q-43 49 -116 49q-5 0 -14.5 -1t-14.5 -1v47q180 -8 269 -8q140 0 307 8v-47h-31q-68 0 -97.5 -16t-29.5 -60q0 -30 39 -106l281 -549l196 328q58 97 81.5 138t45 92.5t21.5 84.5q0 49 -27.5 68.5t-95.5 19.5h-13v47q99 -6 203 -6q78 0 201 6z" />
    <glyph glyph-name="Z" unicode="Z" horiz-adv-x="1204" 
d="M133 1366h957v-29l-785 -1284h381q98 0 162 13t114 48.5t79.5 97t48.5 159.5h36l-22 -371h-1032v33l778 1282h-361q-160 0 -232.5 -52.5t-100.5 -205.5h-37z" />
    <glyph glyph-name="bracketleft" unicode="[" horiz-adv-x="671" 
d="M164 1368h436v-61h-299v-1643h299v-65h-436v1769z" />
    <glyph glyph-name="backslash" unicode="\" horiz-adv-x="557" 
d="M-2 1403h80l518 -1593h-80z" />
    <glyph glyph-name="bracketright" unicode="]" horiz-adv-x="671" 
d="M72 1368h436v-1769h-436v65h299v1643h-299v61z" />
    <glyph glyph-name="asciicircum" unicode="^" horiz-adv-x="2048" 
d="M934 1462h178l520 -565h-92l-518 436l-520 -436h-90z" />
    <glyph glyph-name="underscore" unicode="_" 
d="M0 -365h1024v-118h-1024v118z" />
    <glyph glyph-name="grave" unicode="`" 
d="M393 1335l287 -299h-66l-329 205q-64 42 -64 82q0 30 21 51t51 21q24 0 46.5 -14.5t53.5 -45.5z" />
    <glyph glyph-name="a" unicode="a" horiz-adv-x="1011" 
d="M813 688v-520q0 -54 18 -82.5t50 -28.5q14 0 27 6t20.5 12t27.5 23l27 -28q-63 -99 -180 -99q-61 0 -109.5 40t-60.5 104q-72 -68 -162.5 -105t-175.5 -37q-107 0 -164 49.5t-57 137.5q0 98 81 170.5t255 140.5l108 41q15 6 36 13.5t30 11t22 10t18 11.5t10.5 14t7 19.5
t1.5 26.5v72q0 100 -45.5 146.5t-157.5 46.5q-73 0 -119.5 -26.5t-54.5 -72.5q-1 -4 -3 -18.5t-3 -18.5t-4 -15.5t-5.5 -15.5t-7.5 -12.5t-11 -11.5t-14.5 -7t-19.5 -5.5t-24 -1.5q-29 0 -48.5 22t-19.5 54q0 71 93.5 120.5t261.5 49.5q180 0 266 -58t86 -178zM639 516
q-197 -78 -286 -149.5t-89 -163.5q0 -72 37.5 -112t106.5 -40q31 0 69.5 13t75 36.5t61.5 62.5t25 85v268z" />
    <glyph glyph-name="b" unicode="b" horiz-adv-x="1120" 
d="M319 1481v-686q55 64 125 93.5t166 29.5q188 0 306 -127.5t118 -329.5q0 -227 -124 -357.5t-337 -130.5q-88 0 -159 29.5t-146 93.5l-121 -116v1265q0 53 -2.5 76.5t-18.5 41.5t-40.5 22.5t-77.5 7.5v39q98 5 311 49zM313 264q0 -235 224 -235q152 0 230.5 108t78.5 320
q0 192 -78 296.5t-211 104.5q-112 0 -178 -68t-66 -182v-344z" />
    <glyph glyph-name="c" unicode="c" horiz-adv-x="899" 
d="M827 147l31 -41q-128 -137 -334 -137q-203 0 -334 127.5t-131 329.5q0 214 145 357t376 143q118 0 190 -38t72 -95q0 -30 -17 -48t-43 -18q-42 0 -59.5 17t-34.5 61q-16 43 -42 60.5t-87 17.5q-134 0 -214.5 -116.5t-80.5 -322.5q0 -197 83.5 -301t238.5 -104
q127 0 241 108z" />
    <glyph glyph-name="d" unicode="d" horiz-adv-x="1216" 
d="M1018 1481v-1241v-11q0 -78 34.5 -113.5t108.5 -35.5h13v-31q-167 -39 -271 -76q-32 84 -43 162q-74 -84 -150 -122t-173 -38q-194 0 -322.5 131.5t-128.5 329.5q0 206 128.5 346t315.5 140q181 0 310 -129v452q0 35 -1 53.5t-6 37.5t-13.5 27.5t-25.5 16t-39.5 9.5
t-58.5 2h-16v41q168 9 338 49zM842 602v31q0 99 -75.5 165t-188.5 66q-130 0 -209.5 -112t-79.5 -312q0 -191 75.5 -298t206.5 -107q125 0 198 77.5t73 211.5v278z" />
    <glyph glyph-name="e" unicode="e" horiz-adv-x="1015" 
d="M748 621q6 41 6 47q0 100 -56 157.5t-145 57.5q-100 0 -169.5 -70.5t-84.5 -191.5h449zM938 561h-651q-6 -64 -6 -102q0 -183 91.5 -296.5t235.5 -113.5q81 0 140.5 31t123.5 104l37 -39q-124 -176 -358 -176q-209 0 -343 132.5t-134 328.5q0 130 61 243t173.5 183
t248.5 70q167 0 274 -97t107 -249v-19z" />
    <glyph glyph-name="f" unicode="f" horiz-adv-x="659" 
d="M383 1174v-308h233v-53h-233v-637v-29q0 -65 39 -83t162 -23v-43q-163 10 -291 10q-99 0 -248 -10v43q85 0 121.5 22.5t36.5 79.5v33v637h-154v53h154v131q0 238 86.5 348.5t300.5 110.5q125 0 195.5 -37.5t70.5 -101.5q0 -28 -19.5 -46t-50.5 -18q-19 0 -32.5 5
t-21 15.5t-11 19t-7 23.5t-5.5 21q-29 78 -146 78q-87 0 -133.5 -61t-46.5 -180z" />
    <glyph glyph-name="g" unicode="g" horiz-adv-x="1128" 
d="M358 297q-107 38 -166 116.5t-59 180.5q0 143 109 237.5t274 94.5q153 0 268 -95q67 47 110.5 68t88.5 21q58 0 91.5 -25.5t33.5 -67.5q0 -27 -19 -46t-45 -19q-29 0 -67.5 38t-69.5 38q-34 0 -90 -39q76 -104 76 -211q0 -151 -92 -226.5t-283 -89.5q-152 -10 -195 -26
q-57 -20 -57 -68q0 -44 52.5 -54.5t198.5 -12.5h15q243 -3 356 -76t113 -244q0 -163 -123.5 -258.5t-342.5 -95.5q-193 0 -316 81.5t-123 202.5q0 71 46 122t106 51q48 0 84 -39q-50 -12 -76.5 -52.5t-26.5 -103.5q0 -95 85.5 -153t226.5 -58q158 0 241.5 62t83.5 176
q0 50 -16 85.5t-42.5 57t-73 34t-96.5 16.5t-124 5q-174 2 -260 45.5t-86 143.5q0 143 190 184zM504 885q-87 0 -143 -77.5t-56 -213.5q0 -134 55 -208.5t150 -74.5q97 0 152 76t55 221q0 128 -59 202.5t-154 74.5z" />
    <glyph glyph-name="h" unicode="h" horiz-adv-x="1218" 
d="M387 1475v-723q72 91 148.5 130.5t181.5 39.5q146 0 224.5 -69t78.5 -200v-51v-426v-29q0 -60 32.5 -82t114.5 -24v-43q-153 10 -237 10q-118 0 -238 -10v43q80 2 114 24t34 78v33v465q0 217 -193 217q-106 0 -183 -84t-77 -211v-387v-29q0 -60 33 -82t115 -24v-43
q-153 10 -238 10q-118 0 -238 -10v43q80 2 114 24t34 78v33v1077q0 67 -34 95t-114 30v37q102 7 328 60z" />
    <glyph glyph-name="i" unicode="i" horiz-adv-x="587" 
d="M276 1460q43 0 75 -31t32 -75q0 -43 -31.5 -74t-75.5 -31t-74 31t-30 74q0 44 30 75t74 31zM387 944v-768v-29q0 -57 31 -80t108 -26v-43q-130 10 -229 10q-98 0 -225 -10v43q74 3 104.5 25.5t30.5 76.5v33v461v51q0 82 -19 109.5t-94 27.5h-16v41q128 11 309 78z" />
    <glyph glyph-name="j" unicode="j" horiz-adv-x="565" 
d="M279 1460q43 0 74.5 -31t31.5 -75q0 -43 -31 -74t-75 -31t-75.5 31t-31.5 74q0 44 31.5 75t75.5 31zM389 944v-1151q0 -172 -99.5 -264t-285.5 -92q-141 0 -215 36.5t-74 104.5q0 29 18.5 46.5t49.5 17.5q17 0 29.5 -5t20.5 -16t12 -19t9 -24t7 -22q28 -74 139 -74
t160 71t49 222v862v39q0 49 -2.5 72.5t-15 44t-37.5 26.5t-70 6h-31v41q129 3 336 78z" />
    <glyph glyph-name="k" unicode="k" horiz-adv-x="1095" 
d="M387 1475v-1018l131 137q89 94 128.5 144.5t39.5 78.5q0 23 -20 32t-80 19v37q180 -8 188 -8q46 0 148 8v-37q-17 -2 -32.5 -5.5t-31.5 -11t-26 -11.5t-26 -17.5t-22 -17.5t-24 -22.5t-21.5 -22t-24.5 -27t-24 -26.5l-153 -172l391 -390q36 -36 54.5 -52.5t47 -32.5
t57.5 -19v-43q-61 4 -151 4q-51 0 -117 -4l-395 418l-37 -33v-207v-29q0 -60 33 -82t115 -24v-43q-153 10 -238 10q-118 0 -238 -10v43q80 2 114 24t34 78v33v1077q0 64 -27.5 85.5t-103.5 21.5h-17v37q72 10 328 78z" />
    <glyph glyph-name="l" unicode="l" horiz-adv-x="585" 
d="M387 1475v-1299v-29q0 -60 33 -82t115 -24v-43q-153 10 -238 10q-118 0 -238 -10v43q80 2 113 24t33 78l1 5q0 5 0.5 12.5t0.5 15.5v1077q0 67 -35 95t-115 30v37q105 7 330 60z" />
    <glyph glyph-name="m" unicode="m" horiz-adv-x="1785" 
d="M348 944q27 -103 27 -184v-19q111 185 321 185q114 0 185 -47.5t90 -135.5q53 86 138 133.5t189 47.5q152 0 220.5 -73t68.5 -224v-451v-29q0 -60 33 -82t115 -24v-43q-153 10 -238 10q-117 0 -237 -10v43q79 2 112 24t33 78l1 5q0 5 0.5 12.5t0.5 15.5v481
q0 98 -45 149.5t-133 51.5q-111 0 -176.5 -80t-65.5 -217v-385v-29q0 -59 32.5 -81.5t110.5 -24.5v-43q-147 10 -233 10q-94 0 -227 -10v43q74 3 105.5 25.5t31.5 76.5v33v481q0 97 -45.5 149t-132.5 52q-110 0 -176 -80t-66 -217v-385v-29q0 -60 33 -82t115 -24v-43
q-153 10 -238 10q-118 0 -238 -10v43q80 2 114 24t34 78v33v492q0 93 -24 125t-105 32h-19v41q106 0 289 78z" />
    <glyph glyph-name="n" unicode="n" horiz-adv-x="1216" 
d="M348 944q26 -91 29 -213q120 191 338 191q146 0 224.5 -69t78.5 -200v-51v-426v-29q0 -60 32.5 -82t114.5 -24v-43q-153 10 -237 10q-118 0 -238 -10v43q80 2 114 24t34 78v33v465q0 217 -193 217q-106 0 -182 -84t-76 -211v-387v-29q0 -60 33 -82t115 -24v-43
q-153 10 -238 10q-118 0 -238 -10v43q80 2 113 24t33 78l1 5q0 5 0.5 12.5t0.5 15.5v492q0 93 -24 125t-105 32h-19v41q106 0 289 78z" />
    <glyph glyph-name="o" unicode="o" horiz-adv-x="1128" 
d="M76 449q0 135 67.5 245t181 171t248.5 61q132 0 243.5 -67.5t174 -174.5t62.5 -225q0 -128 -62 -239.5t-174 -180t-248 -68.5q-212 0 -352.5 134t-140.5 344zM561 885q-130 0 -208.5 -116.5t-78.5 -322.5t75 -319t210 -113q143 0 219 112t76 329q0 207 -78 318.5
t-215 111.5z" />
    <glyph glyph-name="p" unicode="p" horiz-adv-x="1232" 
d="M338 944q17 -60 29 -174q109 156 305 156q195 0 321.5 -130t126.5 -339q0 -212 -132 -343.5t-329 -131.5q-166 0 -282 122v-495v-27q0 -60 32.5 -82t114.5 -24v-45q-176 12 -237 12q-62 0 -238 -12v45q80 2 113 24t33 78l1 4q0 5 0.5 12t0.5 15v1059q0 93 -24 125
t-105 32h-19v41q106 0 289 78zM377 358q0 -315 246 -315q134 0 214.5 105.5t80.5 302.5q0 205 -75.5 311t-217.5 106q-62 0 -120.5 -30.5t-90.5 -81.5q-17 -28 -25.5 -67t-10 -68t-1.5 -86v-177z" />
    <glyph glyph-name="q" unicode="q" horiz-adv-x="1134" 
d="M801 96q-46 -57 -119 -89t-162 -32q-188 0 -313 131.5t-125 329.5q0 204 137 346t346 142q169 0 287 -95l129 80v-1300v-27q0 -60 32.5 -82t114.5 -24v-45q-176 12 -237 12q-62 0 -238 -12v45q80 2 114 24t34 78v31v487zM801 352v221q0 158 -49 231t-168 73
q-137 0 -217 -114t-80 -319q0 -199 70.5 -305t199.5 -106q132 0 188 77.5t56 241.5z" />
    <glyph glyph-name="r" unicode="r" horiz-adv-x="849" 
d="M338 938q30 -79 33 -225q46 95 123 146.5t165 51.5q77 0 120.5 -30t43.5 -78q0 -38 -19 -60t-50 -22q-30 0 -47.5 18.5t-24 41t-28 41t-60.5 18.5q-88 0 -147.5 -74t-59.5 -203v-387v-29q0 -60 33 -82t115 -24v-43q-153 10 -238 10q-118 0 -238 -10v43q80 2 114 24t34 78
v33v471q0 102 -31 141t-115 39h-22v41q131 17 299 70z" />
    <glyph glyph-name="s" unicode="s" horiz-adv-x="782" 
d="M561 870l39 52h25q-4 -126 -4 -179v-61h-33q-15 87 -76 143t-135 56q-62 0 -101.5 -31t-39.5 -82q0 -58 39 -94.5t147 -95.5q18 -10 57.5 -31.5t55 -30t45.5 -28t42.5 -32.5t31.5 -36t26.5 -45.5t13.5 -53.5t6 -67q0 -133 -81.5 -209t-225.5 -76q-132 0 -229 84l-35 -57
h-18q2 76 2 137q0 13 -1 60.5t-1 82.5h28q21 -120 91.5 -189t164.5 -69q75 0 126.5 44.5t51.5 109.5q0 70 -46 111.5t-162 101.5q-133 71 -192.5 135t-59.5 156q0 110 72 180t188 70q93 0 188 -56z" />
    <glyph glyph-name="t" unicode="t" horiz-adv-x="671" 
d="M309 1126h35v-225h240v-61h-238v-617q0 -94 31 -139t100 -45q82 0 144 96l36 -33q-36 -65 -95 -95t-146 -30q-74 0 -122.5 15.5t-75 49.5t-36.5 78.5t-10 112.5v607h-96v32q139 82 233 254z" />
    <glyph glyph-name="u" unicode="u" horiz-adv-x="1161" 
d="M4 903q126 -4 168 -4q38 0 160 4v-645v-6q0 -211 192 -211q106 0 182 84t76 211v389v37q0 96 -131 96h-16v45q126 -4 170 -4q36 0 158 4v-672v-6q0 -86 24 -117.5t98 -31.5h25v-43q-106 0 -289 -78l-33 207q-117 -185 -333 -185q-170 0 -236.5 78t-66.5 242v428
q0 12 -1 25l-1 12q0 96 -130 96h-16v45z" />
    <glyph glyph-name="v" unicode="v" horiz-adv-x="954" 
d="M-27 903q104 -8 217 -8t201 8v-45q-60 0 -84 -11.5t-24 -45.5q0 -51 47 -158l192 -444l90 237q96 253 109 310q6 26 6 42q0 70 -106 70v45q98 -8 141 -8q39 0 141 8v-45h-4q-43 0 -75 -49t-81 -170l-264 -659h-45l-332 784q-22 49 -45.5 68t-83.5 26v45z" />
    <glyph glyph-name="w" unicode="w" horiz-adv-x="1329" 
d="M-68 903q140 -8 203 -8q76 0 236 8v-45h-23q-60 0 -84 -13t-24 -52q0 -27 12 -70l158 -500l247 668h27l266 -690l156 504q12 41 12 79q0 41 -27 56t-96 18v45q120 -8 164 -8q77 0 150 8v-45q-56 0 -86 -32.5t-56 -110.5l-245 -735h-50l-258 651l-247 -651h-45l-238 729
q-27 83 -57.5 114t-94.5 35v45z" />
    <glyph glyph-name="x" unicode="x" horiz-adv-x="1124" 
d="M43 903q104 -8 217 -8t201 8v-45h-43q-25 0 -39 -9t-14 -22q0 -19 16 -41l194 -245l136 166q53 66 53 100q0 27 -24 37.5t-81 13.5v45q156 -8 175 -8q24 0 172 8v-45h-7q-55 0 -96 -26.5t-90 -86.5l-205 -247l283 -338q48 -58 92.5 -86.5t101.5 -32.5v-43q-112 8 -241 8
q-117 0 -234 -8v43h27q92 0 92 37q0 8 -3 16.5t-6 13t-11.5 15.5t-12.5 16l-192 236l-166 -211q-27 -39 -27 -58q0 -62 92 -65v-43q-41 6 -116 6h-51q-128 0 -187 -6v43h6q66 0 114.5 34.5t111.5 112.5l186 230l-303 373q-30 36 -57 51.5t-64 15.5v45z" />
    <glyph glyph-name="y" unicode="y" horiz-adv-x="954" 
d="M-27 903q104 -8 197 -8q69 0 236 8v-45q-65 -2 -92 -15.5t-27 -51.5q0 -16 14 -56l205 -528l194 471q21 52 21 102q0 41 -25 58.5t-82 19.5v45q122 -8 144 -8q33 0 139 8v-45h-6q-33 0 -61.5 -34.5t-59.5 -110.5l-264 -637q-161 -392 -229.5 -523t-133.5 -131
q-25 0 -40 17t-15 45q0 23 7 40t21.5 29t25 18t31 14.5t26.5 11.5q33 16 88 109.5t94 209.5l33 98l-289 695q-5 12 -14 34.5t-13 32t-12.5 25.5t-17 22.5t-22 15.5t-31.5 13t-42 6v45z" />
    <glyph glyph-name="z" unicode="z" horiz-adv-x="903" 
d="M141 899h676v-18l-524 -836h98h66q66 0 101.5 1t76.5 6.5t61.5 16t42 30t33.5 48t21 70.5h36l-16 -217h-737v18l530 838h-217q-116 0 -162 -31t-67 -131h-37z" />
    <glyph glyph-name="braceleft" unicode="{" 
d="M846 1516v-52q-77 -1 -124.5 -14t-74.5 -46t-37 -80t-10 -124v-143q0 -85 -6 -141t-23 -106.5t-49 -82t-83 -55t-126 -37.5q75 -14 126 -37.5t83 -55t49 -82t23 -106.5t6 -141v-143q0 -77 9.5 -124t37.5 -79.5t75 -45.5t124 -14v-51h-10q-149 0 -230.5 33t-115 106
t-33.5 207v213q0 155 -57.5 216.5t-223.5 74.5v60q167 15 224 75t57 215v213q0 134 33.5 207t115 106.5t230.5 33.5h10z" />
    <glyph glyph-name="bar" unicode="|" 
d="M449 1565h126v-2048h-126v2048z" />
    <glyph glyph-name="braceright" unicode="}" 
d="M178 1516h10q218 0 298.5 -75t80.5 -272v-213q0 -155 57 -215t224 -75v-60q-166 -13 -223.5 -74.5t-57.5 -216.5v-213q0 -197 -80.5 -271.5t-298.5 -74.5h-10v51q77 1 124 14t75 45.5t37.5 79.5t9.5 124v143q0 85 6 141t23 106.5t49 82t83 55t126 37.5q-75 14 -126 37.5
t-83 55t-49 82t-23 106.5t-6 141v143q0 77 -10 124t-37 80t-74.5 46t-124.5 14v52z" />
    <glyph glyph-name="asciitilde" unicode="~" horiz-adv-x="1705" 
d="M1530 758v-131q-202 -144 -387 -144q-88 0 -191 35q-29 10 -99 35t-104.5 35.5t-87.5 21.5t-98 11q-87 0 -178.5 -39.5t-206.5 -120.5v133q210 145 387 145q50 0 104.5 -10.5t91 -22t95.5 -32.5q9 -3 40.5 -14.5t43 -15.5t38.5 -13t42.5 -12.5t38.5 -8t44 -6.5t42 -2
q89 0 180.5 38.5t204.5 117.5z" />
    <glyph glyph-name="exclamdown" unicode="&#xa1;" horiz-adv-x="616" 
d="M307 1403q49 0 83 -34.5t34 -80.5q0 -49 -33.5 -83t-81.5 -34q-47 0 -81.5 35t-34.5 82q0 49 33 82t81 33zM285 1042h49v-172q0 -168 21.5 -327t43 -265.5t21.5 -146.5q0 -71 -30 -111t-81 -40q-52 0 -82 40t-30 113q0 31 22.5 140.5t45 289.5t22.5 381q0 15 -1 47.5
t-1 50.5z" />
    <glyph glyph-name="cent" unicode="&#xa2;" horiz-adv-x="1124" 
d="M860 1196h70l-103 -262q66 -22 97.5 -49.5t31.5 -65.5q0 -31 -17.5 -48t-49.5 -17q-23 0 -38.5 9.5t-21.5 19.5t-16 35.5t-16 37.5l-287 -733q57 -64 184 -64q128 0 246 109l31 -43q-117 -129 -297 -129q-101 0 -203 31l-102 -265h-72l115 291q-115 54 -175.5 156.5
t-60.5 243.5q0 142 68.5 257.5t180.5 178.5t243 63q40 0 92 -6zM739 899q-38 10 -59 10q-140 0 -220.5 -114.5t-80.5 -325.5q0 -94 18.5 -163.5t63.5 -125.5z" />
    <glyph glyph-name="sterling" unicode="&#xa3;" horiz-adv-x="1124" 
d="M557 756h332v-72h-320q25 -138 25 -188q0 -171 -64 -308q137 -57 283 -57q60 0 105 13t68.5 32t39 37.5t24.5 31.5t15 13q18 0 18 -20q0 -107 -71 -187t-187 -80q-80 0 -154 33.5t-184 104.5q-39 -65 -107 -103.5t-142 -38.5q-77 0 -119.5 35.5t-42.5 101.5q0 78 49 123
t131 45q81 0 205 -57q8 62 8 90q0 164 -76 377h-262v74h240q-47 162 -47 262q0 182 101.5 284.5t283.5 102.5q134 0 226.5 -63t92.5 -144q0 -36 -23 -58t-55 -22q-25 0 -42 8t-27.5 26.5t-15.5 35.5t-11 49q-24 125 -174 125q-88 0 -142.5 -62.5t-54.5 -166.5
q0 -61 17.5 -145t56.5 -232zM440 141q-59 38 -102 56t-98 18q-51 0 -82 -28t-31 -74t29 -70.5t84 -24.5q61 0 114 32t86 91z" />
    <glyph glyph-name="currency" unicode="&#xa4;" horiz-adv-x="1241" 
d="M158 1419l207 -207q120 91 256 91q140 0 260 -91l204 207l72 -73l-205 -205q86 -115 86 -256t-86 -256l205 -205l-72 -74l-204 207q-113 -88 -260 -88q-143 0 -256 88l-207 -207l-72 74l207 205q-88 117 -88 256t88 256l-207 205zM623 1200q-130 0 -222 -92t-92 -221
q0 -131 92 -223.5t222 -92.5t221.5 93t91.5 223q0 129 -91.5 221t-221.5 92z" />
    <glyph glyph-name="yen" unicode="&#xa5;" horiz-adv-x="1280" 
d="M1290 1372v-41q-16 0 -30.5 -2.5t-26 -5t-24 -10.5t-20 -11.5t-18.5 -16.5t-16 -18t-16.5 -22.5t-15 -23t-16.5 -27t-17 -27.5l-205 -333h344v-62h-377l-115 -186h492v-62h-516v-325q0 -100 36.5 -131.5t155.5 -34.5v-43q-153 6 -266 6q-146 0 -293 -6v43q117 2 155 34
t38 132v325h-473v62h448l-104 186h-344v62h313l-193 348q-4 7 -13.5 24.5t-12.5 23t-11.5 19.5t-13 18.5t-13.5 15t-17 14.5t-20 11t-24.5 10t-29 7t-35.5 6v41q98 -6 262 -6q160 0 242 6v-41q-73 -2 -105.5 -18.5t-32.5 -57.5q0 -51 44 -131l274 -530l197 328
q56 94 80.5 137.5t45.5 94t21 83.5q0 52 -28 70t-107 24v41q99 -6 201 -6q77 0 200 6z" />
    <glyph glyph-name="brokenbar" unicode="&#xa6;" 
d="M449 1432h126v-758h-126v758zM449 408h126v-758h-126v758z" />
    <glyph glyph-name="section" unicode="&#xa7;" 
d="M510 969l141 -117q56 -48 92 -83t68.5 -76.5t47.5 -83.5t15 -87q0 -118 -66 -190t-171 -72q-33 0 -62 2q105 -80 155 -151.5t50 -147.5q0 -124 -75.5 -198t-206.5 -74q-123 0 -205 64.5t-82 142.5q0 51 27.5 81.5t72.5 30.5q44 0 69.5 -23t25.5 -61q0 -21 -11 -41
t-25 -32t-25 -23.5t-11 -17.5q0 -28 45.5 -53t116.5 -25q82 0 132 44.5t50 119.5q0 58 -36 107t-112 112l-198 164q-85 69 -132.5 154t-47.5 161q0 104 66 174t159 70q21 0 65 -6q-110 89 -158 159.5t-48 161.5q0 110 76.5 179t201.5 69q121 0 192.5 -59t71.5 -140
q0 -49 -28 -77.5t-76 -28.5q-38 0 -61 23t-23 59q0 27 16 49t32.5 39t16.5 32q0 22 -39 40t-106 18q-74 0 -122 -43t-48 -111q0 -34 10 -62.5t37.5 -59.5t50.5 -51.5t72 -61.5zM397 805q-65 0 -109 -42t-44 -106q0 -54 28.5 -103t89.5 -105q89 -82 145 -118t107 -36
q68 0 115 42t47 103q0 54 -32 104.5t-101 114.5q-80 75 -137 110.5t-109 35.5z" />
    <glyph glyph-name="dieresis" unicode="&#xa8;" 
d="M313 1290q40 0 70.5 -30t30.5 -70q0 -42 -29.5 -71t-71.5 -29q-41 0 -69.5 28.5t-28.5 71.5q0 40 29 70t69 30zM696 1290q40 0 69.5 -30t29.5 -70q0 -42 -28.5 -71t-70.5 -29t-71 29t-29 71q0 40 30 70t70 30z" />
    <glyph glyph-name="copyright" unicode="&#xa9;" horiz-adv-x="1683" 
d="M844 1382q137 0 266 -53t227 -151q98 -97 152.5 -228.5t54.5 -271.5q0 -139 -53 -267.5t-154 -230.5q-98 -100 -225 -152.5t-270 -52.5q-291 0 -496 205q-101 100 -154 227.5t-53 270.5q0 140 53 268.5t152 229.5q98 99 228 152.5t272 53.5zM844 1303q-123 0 -237 -48.5
t-201 -136.5q-88 -89 -134.5 -202.5t-46.5 -237.5q0 -125 47.5 -238.5t135.5 -201.5q181 -181 434 -181q256 0 434 181q182 185 182 440q0 124 -47 240t-133 202q-87 87 -200.5 135t-233.5 48zM1120 1096h35l2 -314h-41q-68 275 -280 275q-122 0 -185 -94t-63 -279
q0 -381 266 -381q170 0 283 174l34 -24q-117 -209 -342 -209q-167 0 -285 123.5t-118 296.5q0 188 116 313t285 125q55 0 104 -17t81 -34t45 -17q27 0 42 14.5t21 47.5z" />
    <glyph glyph-name="ordfeminine" unicode="&#xaa;" horiz-adv-x="759" 
d="M610 1223v-365q0 -76 52 -76q23 0 55 29l20 -20q-49 -70 -135 -70q-45 0 -81.5 28t-45.5 72q-55 -47 -122.5 -72.5t-131.5 -25.5q-81 0 -123.5 34.5t-42.5 96.5q0 69 61 119.5t191 97.5l82 29q12 5 30.5 11.5t25.5 9t17 8t13 11t5.5 14t2.5 20.5v51q0 70 -34 102.5
t-119 32.5q-55 0 -89.5 -19t-39.5 -51q-9 -45 -18 -56q-15 -17 -52 -17q-22 0 -36.5 15t-14.5 38q0 49 70.5 84t195.5 35q135 0 199.5 -40.5t64.5 -125.5zM479 1102q-148 -55 -214 -104.5t-66 -114.5q0 -51 27.5 -79t78.5 -28q54 0 114 39t60 100v187z" />
    <glyph glyph-name="guillemotleft" unicode="&#xab;" horiz-adv-x="884" 
d="M256 463q67 -80 117 -149t70 -105t20 -47q0 -15 -14 -15q-10 0 -45 36t-119.5 117.5t-182.5 162.5q97 79 181 160.5t119.5 118t46.5 36.5q14 0 14 -14q0 -11 -20 -47t-70 -105t-117 -149zM571 463q67 -80 117 -149t70 -105t20 -47q0 -15 -14 -15q-10 0 -45 36t-119 117.5
t-182 162.5q97 79 181 160.5t119 118t46 36.5q14 0 14 -14q0 -11 -20 -47t-70 -105t-117 -149z" />
    <glyph glyph-name="logicalnot" unicode="&#xac;" horiz-adv-x="1705" 
d="M254 858h1198v-502h-115v385h-1083v117z" />
    <glyph glyph-name="registered" unicode="&#xae;" horiz-adv-x="1683" 
d="M844 1382q138 0 268.5 -54t228.5 -152q97 -97 150 -228t53 -272q0 -136 -55.5 -267t-157.5 -233q-201 -201 -495 -201q-137 0 -263 52.5t-227 152.5t-154 227.5t-53 270.5q0 140 53 268.5t152 229.5q98 99 228 152.5t272 53.5zM844 1303q-122 0 -236 -48.5t-202 -136.5
q-88 -89 -134.5 -202.5t-46.5 -237.5q0 -257 183 -440q181 -181 434 -181q256 0 434 181q182 185 182 440q0 124 -47 241t-133 201q-87 87 -200.5 135t-233.5 48zM469 1092h393q150 0 234 -55t84 -146q0 -76 -69.5 -124.5t-217.5 -74.5q94 -29 142.5 -77.5t70.5 -133.5
q5 -19 9 -45.5t6.5 -42.5t8 -32t17 -23.5t29.5 -7.5q67 0 67 133h43v-12q0 -88 -41 -133.5t-119 -45.5q-95 0 -127 66q-19 40 -21.5 114.5t-8.5 94.5q-39 133 -207 133h-33v-248q0 -55 27 -76t98 -24v-41h-385v41q71 2 99 23.5t28 76.5v516q0 56 -27 77t-100 24v43zM729 719
q33 -2 66 -2q114 0 174.5 45.5t60.5 128.5q0 71 -51.5 116.5t-144.5 45.5q-105 0 -105 -72v-262z" />
    <glyph glyph-name="macron" unicode="&#xaf;" 
d="M246 1253h516v-127h-516v127z" />
    <glyph glyph-name="degree" unicode="&#xb0;" horiz-adv-x="673" 
d="M338 1454q117 0 200 -83t83 -200q0 -116 -83 -199t-202 -83q-118 0 -199.5 81.5t-81.5 200.5t82.5 201t200.5 82zM338 1372q-84 0 -143.5 -58.5t-59.5 -142.5q0 -85 59.5 -143.5t143.5 -58.5q85 0 143 59t58 143t-58.5 142.5t-142.5 58.5z" />
    <glyph glyph-name="plusminus" unicode="&#xb1;" horiz-adv-x="1705" 
d="M795 1180h118v-344h539v-117h-539v-344h-118v344h-541v117h541v344zM254 158h1198v-117h-1198v117z" />
    <glyph glyph-name="twosuperior" unicode="&#xb2;" horiz-adv-x="741" 
d="M190 651h449l-41 -172h-23q0 6 1.5 17.5t1.5 17.5q0 24 -11 28.5t-53 4.5h-444q22 69 211 246q10 10 45 42t46 42.5t38 39t37 43.5t28 43t24.5 51t12.5 53.5t6 63.5q0 88 -50.5 139.5t-137.5 51.5q-67 0 -113.5 -41.5t-46.5 -101.5q0 -57 33 -92t86 -35q34 0 61 16
q-13 -72 -117 -72q-67 0 -110 41.5t-43 104.5q0 89 75 149t201 60q133 0 215 -66t82 -172q0 -28 -6 -54t-14 -46t-26 -42.5t-31 -36.5t-41 -37t-44 -34.5t-52 -37t-54 -38.5q-122 -90 -155 -124q-27 -28 -40 -52z" />
    <glyph glyph-name="threesuperior" unicode="&#xb3;" horiz-adv-x="741" 
d="M385 1018v-2h18q113 0 179.5 -54t66.5 -143q0 -117 -106 -205t-250 -88q-94 0 -154.5 37t-60.5 88t63 51q27 0 40.5 -15.5t25.5 -51.5q14 -41 39.5 -59.5t70.5 -18.5q97 0 147 59.5t50 176.5q0 198 -139 198q-29 0 -53.5 -15t-38 -33t-28.5 -33t-26 -15t-19.5 7.5
t-8.5 15.5q0 9 4 16t13.5 13.5t19.5 11.5t29 15t34 19q86 49 124 100t38 134q0 67 -33 101t-94 34q-63 0 -103 -34t-40 -87q0 -37 25 -62.5t63 -25.5q19 0 59 14q-5 -28 -33.5 -45.5t-70.5 -17.5q-57 0 -91 31t-34 75q0 66 73.5 123.5t184.5 57.5q100 0 159.5 -45t59.5 -109
q0 -120 -203 -219z" />
    <glyph glyph-name="acute" unicode="&#xb4;" 
d="M725 1241l-330 -205h-67l288 299q32 32 53.5 46t45.5 14q30 0 50.5 -21t20.5 -51q0 -42 -61 -82z" />
    <glyph glyph-name="mu" unicode="&#xb5;" horiz-adv-x="1120" 
d="M164 193q-15 -79 -28 -161.5t-19.5 -138.5t-14 -111t-14.5 -88.5t-18.5 -61t-28 -39t-41.5 -11.5q-37 0 -58.5 23.5t-21.5 64.5q0 35 23.5 122.5t68 252t78.5 326.5l109 514h147l-104 -492q-13 -67 -13 -112q0 -83 42.5 -129t117.5 -46q97 0 163 68t95 201l111 510h149
l-114 -531q-21 -103 -21 -137q0 -49 26 -78.5t66 -29.5q73 0 117 69q19 29 32.5 70t23 62.5t24.5 21.5q26 0 26 -37q0 -62 -40 -150q-73 -163 -230 -163q-67 0 -108 50.5t-41 139.5v23q-92 -218 -281 -218q-195 0 -223 216z" />
    <glyph glyph-name="paragraph" unicode="&#xb6;" 
d="M948 1479v-78h-125v-1401h-94v1401h-184v-1401h-94v782q-173 7 -274 102t-101 246q0 156 106.5 252.5t286.5 96.5h479z" />
    <glyph glyph-name="periodcentered" unicode="&#xb7;" horiz-adv-x="561" 
d="M281 838q47 0 79.5 -33.5t32.5 -81.5q0 -47 -32 -81t-80 -34t-81.5 33t-33.5 82q0 47 34 81t81 34z" />
    <glyph glyph-name="cedilla" unicode="&#xb8;" 
d="M449 0h63v-113q54 7 70 7q79 0 126.5 -45t47.5 -119q0 -81 -57.5 -128.5t-161.5 -47.5q-103 0 -293 75l35 78q125 -72 223 -72q123 0 123 93q0 41 -30 65.5t-83 24.5q-16 0 -63 -6v188z" />
    <glyph glyph-name="onesuperior" unicode="&#xb9;" horiz-adv-x="741" 
d="M426 1393h14v-78v-88v-561q0 -60 26 -79.5t105 -19.5v-26q-94 4 -192 4q-99 0 -189 -4v26q80 0 106 19.5t26 79.5v571q0 1 -1.5 6t-1.5 8q0 40 -26 53t-92 13h-15v24q163 13 240 52z" />
    <glyph glyph-name="ordmasculine" unicode="&#xba;" horiz-adv-x="845" 
d="M57 1055q0 144 108.5 239t264.5 95q150 0 255.5 -99.5t105.5 -226.5q0 -138 -104.5 -240t-258.5 -102q-158 0 -264.5 94t-106.5 240zM422 1360q-98 0 -156.5 -80.5t-58.5 -224.5q0 -146 55.5 -224.5t157.5 -78.5q108 0 164.5 78t56.5 229q0 146 -58 223.5t-161 77.5z" />
    <glyph glyph-name="guillemotright" unicode="&#xbb;" horiz-adv-x="884" 
d="M463 463q-98 -79 -181.5 -160.5t-118.5 -118.5t-46 -37q-15 0 -15 15q0 11 20.5 47.5t71 105.5t117.5 148q-67 79 -117.5 148t-71 105.5t-20.5 47.5q0 14 15 14q11 0 46 -36t118.5 -117.5t181.5 -161.5zM778 463q-98 -79 -181.5 -160.5t-118.5 -118.5t-46 -37
q-14 0 -14 15q0 11 20.5 47.5t71 105.5t117.5 148q-67 79 -117.5 148t-71 105.5t-20.5 47.5q0 14 14 14q11 0 45.5 -35.5t118.5 -117.5t182 -162z" />
    <glyph glyph-name="onequarter" unicode="&#xbc;" horiz-adv-x="1757" 
d="M408 1393h14q0 -11 -1 -35.5t-1 -38.5q0 -25 1 -52.5t1 -29.5v-524q0 -55 24 -72.5t99 -19.5v-25q-88 4 -183 4q-92 0 -180 -4v25q77 2 101 19.5t24 72.5v532q0 2 -1 7t-1 8q0 37 -24 49t-88 12h-13v22q156 13 228 50zM1307 1403h84l-938 -1436h-86zM1530 788h29v-495
h155v-39h-158v-152q0 -50 23.5 -64.5t106.5 -14.5v-25q-45 1 -88.5 2t-66 1.5t-28.5 0.5q-60 0 -192 -4v25q77 2 105 16.5t28 58.5v154h-367v27zM1448 647l-318 -354h318v354z" />
    <glyph glyph-name="onehalf" unicode="&#xbd;" horiz-adv-x="1757" 
d="M408 1393h14q0 -11 -1 -35.5t-1 -38.5q0 -25 1 -52.5t1 -29.5v-524q0 -55 24 -72.5t99 -19.5v-25q-88 4 -183 4q-92 0 -180 -4v25q77 2 101 19.5t24 72.5v532q0 2 -1 7t-1 8q0 37 -24 49t-88 12h-13v22q156 13 228 50zM1307 1403h84l-938 -1436h-86zM1233 98h426
l-37 -161h-23q0 6 1.5 16.5t1.5 15.5q0 22 -10 26.5t-52 4.5h-422q19 66 199 229q9 8 39 34.5t39 35.5t34 32.5t33.5 35.5t26 34.5t24 40t16 41t12.5 48t3 51.5q0 83 -47.5 130.5t-130.5 47.5q-65 0 -109.5 -38t-44.5 -95q0 -52 31.5 -85.5t81.5 -33.5q34 0 59 14
q-13 -65 -110 -65q-65 0 -106.5 38.5t-41.5 98.5q0 82 72.5 137t192.5 55q127 0 205.5 -60.5t78.5 -158.5q0 -27 -6 -51.5t-13.5 -43t-25 -40t-30 -34.5t-39.5 -34t-42 -32t-49 -34.5t-51 -35.5q-79 -55 -122.5 -92t-63.5 -72z" />
    <glyph glyph-name="threequarters" unicode="&#xbe;" horiz-adv-x="1759" 
d="M369 1042v-4h16q109 0 172.5 -49.5t63.5 -132.5q0 -109 -102 -190.5t-238 -81.5q-92 0 -149.5 33.5t-57.5 82.5q0 22 16.5 35t44.5 13q26 0 38 -14.5t24 -49.5q14 -38 38.5 -56t67.5 -18q92 0 140.5 56t48.5 165q0 185 -134 185q-28 0 -51.5 -14t-36.5 -31t-27 -31
t-24 -14q-12 0 -20.5 7t-8.5 15q0 13 9 21.5t39.5 23t48.5 25.5q82 46 117.5 93t35.5 126q0 125 -118 125q-60 0 -99 -32t-39 -81q0 -34 23 -57t59 -23q25 0 58 13q-3 -26 -30.5 -43t-68.5 -17q-54 0 -86.5 29t-32.5 70q0 62 70 115t174 53q96 0 153.5 -41.5t57.5 -100.5
q0 -117 -192 -205zM1307 1403h84l-938 -1436h-86zM1530 788h29v-495h155v-39h-158v-152q0 -50 23.5 -64.5t106.5 -14.5v-25q-45 1 -88.5 2t-66 1.5t-28.5 0.5q-60 0 -192 -4v25q77 2 105 16.5t28 58.5v154h-367v27zM1448 647l-318 -354h318v354z" />
    <glyph glyph-name="questiondown" unicode="&#xbf;" horiz-adv-x="901" 
d="M596 1405q48 0 82.5 -33.5t34.5 -83.5q0 -49 -34.5 -83t-82.5 -34q-47 0 -81 33.5t-34 83.5q0 48 33 82.5t82 34.5zM582 1061h49v-408q-29 2 -80 2q-169 0 -247.5 -55t-78.5 -180q0 -130 71.5 -211.5t184.5 -81.5q36 0 97 10t84 10q108 0 108 -84q0 -40 -34.5 -64
t-92.5 -24q-123 0 -233 69t-178 191.5t-68 266.5q0 156 101 240.5t292 84.5h25v234z" />
    <glyph glyph-name="Agrave" unicode="&#xc0;" horiz-adv-x="1355" 
d="M674 1405h47l469 -1178q39 -99 85.5 -140t143.5 -48v-39q-145 8 -293 8q-161 0 -292 -8v39q85 6 124 25t39 55q0 51 -30 131l-95 250h-518l-90 -226q-26 -71 -26 -116q0 -58 37 -87t114 -32v-39q-139 8 -223 8q-116 0 -217 -8v39q104 11 153 62.5t103 181.5zM623 1151
l-246 -592h475zM586 1815l286 -299h-65l-330 204q-63 41 -63 82q0 30 20.5 51t50.5 21q42 0 101 -59z" />
    <glyph glyph-name="Aacute" unicode="&#xc1;" horiz-adv-x="1355" 
d="M674 1405h47l469 -1178q39 -99 85.5 -140t143.5 -48v-39q-145 8 -293 8q-161 0 -292 -8v39q85 6 124 25t39 55q0 51 -30 131l-95 250h-518l-90 -226q-26 -71 -26 -116q0 -58 37 -87t114 -32v-39q-139 8 -223 8q-116 0 -217 -8v39q104 11 153 62.5t103 181.5zM623 1151
l-246 -592h475zM918 1720l-330 -204h-68l289 299q31 31 52.5 45t45.5 14q30 0 51 -21t21 -51q0 -42 -61 -82z" />
    <glyph glyph-name="Acircumflex" unicode="&#xc2;" horiz-adv-x="1355" 
d="M674 1405h47l469 -1178q39 -99 85.5 -140t143.5 -48v-39q-145 8 -293 8q-161 0 -292 -8v39q85 6 124 25t39 55q0 51 -30 131l-95 250h-518l-90 -226q-26 -71 -26 -116q0 -58 37 -87t114 -32v-39q-139 8 -223 8q-116 0 -217 -8v39q104 11 153 62.5t103 181.5zM623 1151
l-246 -592h475zM639 1864h117l231 -348h-57l-234 208l-231 -208h-59z" />
    <glyph glyph-name="Atilde" unicode="&#xc3;" horiz-adv-x="1355" 
d="M674 1405h47l469 -1178q39 -99 85.5 -140t143.5 -48v-39q-145 8 -293 8q-161 0 -292 -8v39q85 6 124 25t39 55q0 51 -30 131l-95 250h-518l-90 -226q-26 -71 -26 -116q0 -58 37 -87t114 -32v-39q-139 8 -223 8q-116 0 -217 -8v39q104 11 153 62.5t103 181.5zM623 1151
l-246 -592h475zM932 1812h51q-40 -204 -195 -204q-28 0 -73 10l-107 27q-24 6 -57 6t-54.5 -22t-35.5 -68h-51q38 213 198 213q34 0 64 -9l108 -28q46 -11 56 -11q38 0 59.5 20t36.5 66z" />
    <glyph glyph-name="Adieresis" unicode="&#xc4;" horiz-adv-x="1355" 
d="M674 1405h47l469 -1178q39 -99 85.5 -140t143.5 -48v-39q-145 8 -293 8q-161 0 -292 -8v39q85 6 124 25t39 55q0 51 -30 131l-95 250h-518l-90 -226q-26 -71 -26 -116q0 -58 37 -87t114 -32v-39q-139 8 -223 8q-116 0 -217 -8v39q104 11 153 62.5t103 181.5zM623 1151
l-246 -592h475zM506 1769q40 0 70 -30t30 -70q0 -42 -29 -71t-71 -29q-41 0 -69.5 28.5t-28.5 71.5q0 40 29 70t69 30zM889 1769q40 0 69 -30t29 -70q0 -43 -28.5 -71.5t-69.5 -28.5q-42 0 -71.5 29t-29.5 71q0 40 30.5 70t70.5 30z" />
    <glyph glyph-name="Aring" unicode="&#xc5;" horiz-adv-x="1355" 
d="M694 1960q100 0 171 -70t71 -170t-70.5 -170.5t-171.5 -70.5q-100 0 -169.5 70t-69.5 171t69.5 170.5t169.5 69.5zM694 1870q-61 0 -105 -44t-44 -106q0 -63 43 -106t106 -43q62 0 106 43t44 106q0 62 -44 106t-106 44zM674 1405h47l469 -1178q39 -99 85.5 -140
t143.5 -48v-39q-145 8 -293 8q-161 0 -292 -8v39q85 6 124 25t39 55q0 51 -30 131l-95 250h-518l-90 -226q-26 -71 -26 -116q0 -58 37 -87t114 -32v-39q-139 8 -223 8q-116 0 -217 -8v39q104 11 153 62.5t103 181.5zM623 1151l-246 -592h475z" />
    <glyph glyph-name="AE" unicode="&#xc6;" horiz-adv-x="1763" 
d="M469 1372q195 -10 360 -10q459 0 732 10v-295h-41q-9 65 -30 109.5t-51 71t-82.5 40.5t-108 18.5t-144.5 4.5h-54t-40 -2t-31 -3.5t-19 -8.5t-14 -13t-6 -20t-4 -27v-37v-465q16 -2 49 -2q145 0 212.5 61t78.5 197h45q-10 -153 -10 -270q0 -116 10 -266h-45
q-9 123 -75.5 175t-207.5 52q-37 0 -57 -2v-338v-47q0 -79 10.5 -124t44 -76t91 -41.5t155.5 -10.5q188 0 276 56t109 204h43l-12 -315q-228 10 -625 10q-361 0 -502 -10v45q65 2 102.5 10.5t59.5 31.5t28.5 55t6.5 89v463h-320l-233 -463q-2 -4 -9 -18.5t-9.5 -20t-7 -16.5
t-6 -19.5t-1.5 -17.5q0 -45 37 -67.5t121 -30.5v-39q-139 8 -223 8q-114 0 -215 -8v39q88 10 135.5 48t93.5 126l528 1014q13 26 13 39q0 35 -28 47t-97 12h-33v47zM698 1253l-272 -514h297v514h-25z" />
    <glyph glyph-name="Ccedilla" unicode="&#xc7;" horiz-adv-x="1452" 
d="M1243 1268l27 98h26l17 -381h-41q-38 182 -152.5 278.5t-290.5 96.5q-223 0 -356 -183.5t-133 -510.5q0 -301 136.5 -474.5t361.5 -173.5q178 0 296.5 117t159.5 338h37v-440h-24l-37 102q-125 -85 -241 -126.5t-243 -41.5q-202 0 -361 85.5t-248 242.5t-89 360
q0 214 91.5 384t258 266t379.5 96q231 0 426 -133zM731 0h64v-113q54 7 69 7q79 0 126.5 -45t47.5 -119q0 -81 -57.5 -128.5t-161.5 -47.5q-103 0 -293 75l35 78q125 -72 223 -72q123 0 123 93q0 41 -29.5 65.5t-82.5 24.5q-17 0 -64 -6v188z" />
    <glyph glyph-name="Egrave" unicode="&#xc8;" horiz-adv-x="1310" 
d="M94 1372q177 -8 453 -8q350 0 579 8v-295h-41q-9 66 -30 110t-50.5 70.5t-82 40.5t-108 18.5t-144.5 4.5h-70t-45 -4.5t-31.5 -9t-14.5 -19.5t-8.5 -31t-0.5 -47v-465q16 -2 49 -2q145 0 213.5 61t79.5 197h43q-8 -123 -8 -270q0 -146 8 -266h-43q-9 123 -76 175t-209 52
q-37 0 -57 -2v-338v-47q0 -79 10.5 -124t44 -76t91 -41.5t155.5 -10.5q188 0 277 56t110 204h41l-10 -313q-470 6 -693 6q-303 0 -432 -8v45q65 2 102.5 10.5t59.5 31.5t28.5 55t6.5 89v910q0 57 -6.5 89t-28.5 55t-59.5 31.5t-102.5 10.5v47zM573 1815l287 -299h-65
l-330 204q-64 42 -64 82q0 30 21 51t51 21q41 0 100 -59z" />
    <glyph glyph-name="Eacute" unicode="&#xc9;" horiz-adv-x="1310" 
d="M94 1372q177 -8 453 -8q350 0 579 8v-295h-41q-9 66 -30 110t-50.5 70.5t-82 40.5t-108 18.5t-144.5 4.5h-70t-45 -4.5t-31.5 -9t-14.5 -19.5t-8.5 -31t-0.5 -47v-465q16 -2 49 -2q145 0 213.5 61t79.5 197h43q-8 -123 -8 -270q0 -146 8 -266h-43q-9 123 -76 175t-209 52
q-37 0 -57 -2v-338v-47q0 -79 10.5 -124t44 -76t91 -41.5t155.5 -10.5q188 0 277 56t110 204h41l-10 -313q-470 6 -693 6q-303 0 -432 -8v45q65 2 102.5 10.5t59.5 31.5t28.5 55t6.5 89v910q0 57 -6.5 89t-28.5 55t-59.5 31.5t-102.5 10.5v47zM905 1720l-330 -204h-67
l289 299q31 31 52.5 45t45.5 14q30 0 51 -21t21 -51q0 -41 -62 -82z" />
    <glyph glyph-name="Ecircumflex" unicode="&#xca;" horiz-adv-x="1310" 
d="M94 1372q177 -8 453 -8q350 0 579 8v-295h-41q-9 66 -30 110t-50.5 70.5t-82 40.5t-108 18.5t-144.5 4.5h-70t-45 -4.5t-31.5 -9t-14.5 -19.5t-8.5 -31t-0.5 -47v-465q16 -2 49 -2q145 0 213.5 61t79.5 197h43q-8 -123 -8 -270q0 -146 8 -266h-43q-9 123 -76 175t-209 52
q-37 0 -57 -2v-338v-47q0 -79 10.5 -124t44 -76t91 -41.5t155.5 -10.5q188 0 277 56t110 204h41l-10 -313q-470 6 -693 6q-303 0 -432 -8v45q65 2 102.5 10.5t59.5 31.5t28.5 55t6.5 89v910q0 57 -6.5 89t-28.5 55t-59.5 31.5t-102.5 10.5v47zM627 1864h116l232 -348h-57
l-234 208l-231 -208h-60z" />
    <glyph glyph-name="Edieresis" unicode="&#xcb;" horiz-adv-x="1310" 
d="M94 1372q177 -8 453 -8q350 0 579 8v-295h-41q-9 66 -30 110t-50.5 70.5t-82 40.5t-108 18.5t-144.5 4.5h-70t-45 -4.5t-31.5 -9t-14.5 -19.5t-8.5 -31t-0.5 -47v-465q16 -2 49 -2q145 0 213.5 61t79.5 197h43q-8 -123 -8 -270q0 -146 8 -266h-43q-9 123 -76 175t-209 52
q-37 0 -57 -2v-338v-47q0 -79 10.5 -124t44 -76t91 -41.5t155.5 -10.5q188 0 277 56t110 204h41l-10 -313q-470 6 -693 6q-303 0 -432 -8v45q65 2 102.5 10.5t59.5 31.5t28.5 55t6.5 89v910q0 57 -6.5 89t-28.5 55t-59.5 31.5t-102.5 10.5v47zM494 1769q40 0 70 -30t30 -70
q0 -42 -29 -71t-71 -29t-70.5 28.5t-28.5 71.5q0 40 29.5 70t69.5 30zM877 1769q40 0 69 -30t29 -70q0 -43 -28.5 -71.5t-69.5 -28.5q-42 0 -71.5 29t-29.5 71q0 40 30.5 70t70.5 30z" />
    <glyph glyph-name="Igrave" unicode="&#xcc;" horiz-adv-x="800" 
d="M96 1372q128 -8 303 -8t303 8v-47q-65 -2 -102.5 -10.5t-59 -31.5t-28 -55t-6.5 -89v-910q0 -57 6.5 -89t28 -55t59 -31.5t102.5 -10.5v-45q-125 8 -303 8t-303 -8v45q65 2 102.5 10.5t59.5 31.5t28.5 55t6.5 89v910q0 57 -6.5 89t-28.5 55t-59.5 31.5t-102.5 10.5v47z
M283 1815l286 -299h-65l-330 204q-63 41 -63 82q0 30 20.5 51t50.5 21q42 0 101 -59z" />
    <glyph glyph-name="Iacute" unicode="&#xcd;" horiz-adv-x="800" 
d="M96 1372q128 -8 303 -8t303 8v-47q-65 -2 -102.5 -10.5t-59 -31.5t-28 -55t-6.5 -89v-910q0 -57 6.5 -89t28 -55t59 -31.5t102.5 -10.5v-45q-125 8 -303 8t-303 -8v45q65 2 102.5 10.5t59.5 31.5t28.5 55t6.5 89v910q0 57 -6.5 89t-28.5 55t-59.5 31.5t-102.5 10.5v47z
M614 1720l-329 -204h-68l289 299q31 31 52.5 45t45.5 14q30 0 51 -21t21 -51q0 -41 -62 -82z" />
    <glyph glyph-name="Icircumflex" unicode="&#xce;" horiz-adv-x="800" 
d="M96 1372q128 -8 303 -8t303 8v-47q-65 -2 -102.5 -10.5t-59 -31.5t-28 -55t-6.5 -89v-910q0 -57 6.5 -89t28 -55t59 -31.5t102.5 -10.5v-45q-125 8 -303 8t-303 -8v45q65 2 102.5 10.5t59.5 31.5t28.5 55t6.5 89v910q0 57 -6.5 89t-28.5 55t-59.5 31.5t-102.5 10.5v47z
M336 1864h117l231 -348h-57l-234 208l-231 -208h-60z" />
    <glyph glyph-name="Idieresis" unicode="&#xcf;" horiz-adv-x="800" 
d="M96 1372q128 -8 303 -8t303 8v-47q-65 -2 -102.5 -10.5t-59 -31.5t-28 -55t-6.5 -89v-910q0 -57 6.5 -89t28 -55t59 -31.5t102.5 -10.5v-45q-125 8 -303 8t-303 -8v45q65 2 102.5 10.5t59.5 31.5t28.5 55t6.5 89v910q0 57 -6.5 89t-28.5 55t-59.5 31.5t-102.5 10.5v47z
M203 1769q40 0 70 -30t30 -70q0 -42 -29 -71t-71 -29q-41 0 -70 28.5t-29 71.5q0 40 29.5 70t69.5 30zM586 1769q40 0 69 -30t29 -70q0 -43 -28.5 -71.5t-69.5 -28.5q-42 0 -71.5 29t-29.5 71q0 40 30.5 70t70.5 30z" />
    <glyph glyph-name="Eth" unicode="&#xd0;" horiz-adv-x="1548" 
d="M109 -2v45q65 2 103 10.5t59.5 31.5t28.5 55.5t7 88.5v447h-307v65h307v398q0 56 -7 88.5t-28.5 55.5t-59.5 31.5t-103 10.5v47q156 -4 210 -4q89 0 209 4t150 4q189 0 317.5 -32.5t245.5 -131.5q229 -192 229 -538q0 -678 -747 -678q-61 0 -190 3t-197 3q-149 0 -227 -4
zM516 676v-348q0 -75 10 -124t36.5 -86.5t75.5 -54t124 -16.5q245 0 354 141.5t109 448.5q0 356 -132.5 525t-414.5 169h-38t-31.5 -1t-27.5 -3t-20.5 -5.5t-18 -9.5t-11.5 -14t-9 -19.5t-4 -26t-2 -33.5v-478h346v-65h-346z" />
    <glyph glyph-name="Ntilde" unicode="&#xd1;" horiz-adv-x="1662" 
d="M1122 1374q92 -6 219 -6q145 0 215 6v-45q-34 -1 -60 -4t-46 -10.5t-33 -15t-22 -23.5t-14 -29t-7.5 -39.5t-3 -46.5t-0.5 -57v-1124h-61l-953 1173v-885v-26q0 -60 5.5 -92.5t24.5 -59t56 -36t101 -11.5v-45q-72 6 -228 6q-123 0 -206 -6v45q45 1 75 5.5t51 17.5
t32 26.5t17 43t7.5 56.5t1.5 76v953q-33 57 -81 80.5t-128 23.5v47q126 -6 195 -6q30 0 153 6l877 -1073v805q0 48 -1.5 76t-8 56.5t-18 43t-33 27t-51.5 17t-75 5.5v45zM1069 1812h51q-40 -204 -194 -204q-29 0 -74 10l-107 27q-24 6 -57 6t-54.5 -22t-35.5 -68h-51
q38 213 198 213q34 0 64 -9l109 -28q46 -11 55 -11q38 0 59.5 20t36.5 66z" />
    <glyph glyph-name="Ograve" unicode="&#xd2;" horiz-adv-x="1675" 
d="M850 1403q140 0 272 -47.5t234 -136.5q229 -198 229 -535q0 -146 -56.5 -281t-156.5 -231q-100 -94 -243.5 -149.5t-286.5 -55.5q-316 0 -531 197q-221 199 -221 504q0 263 162 458q111 133 265.5 205t332.5 72zM1337 686q0 318 -135.5 496t-359.5 178
q-219 0 -359.5 -182.5t-140.5 -487.5q0 -306 139 -493t359 -187q217 0 357 180.5t140 495.5zM719 1815l287 -299h-66l-330 204q-63 41 -63 82q0 30 20.5 51t50.5 21q42 0 101 -59z" />
    <glyph glyph-name="Oacute" unicode="&#xd3;" horiz-adv-x="1675" 
d="M850 1403q140 0 272 -47.5t234 -136.5q229 -198 229 -535q0 -146 -56.5 -281t-156.5 -231q-100 -94 -243.5 -149.5t-286.5 -55.5q-316 0 -531 197q-221 199 -221 504q0 263 162 458q111 133 265.5 205t332.5 72zM1337 686q0 318 -135.5 496t-359.5 178
q-219 0 -359.5 -182.5t-140.5 -487.5q0 -306 139 -493t359 -187q217 0 357 180.5t140 495.5zM1051 1720l-330 -204h-68l289 299q31 31 52.5 45t45.5 14q30 0 51 -21t21 -51q0 -42 -61 -82z" />
    <glyph glyph-name="Ocircumflex" unicode="&#xd4;" horiz-adv-x="1675" 
d="M850 1403q140 0 272 -47.5t234 -136.5q229 -198 229 -535q0 -146 -56.5 -281t-156.5 -231q-100 -94 -243.5 -149.5t-286.5 -55.5q-316 0 -531 197q-221 199 -221 504q0 263 162 458q111 133 265.5 205t332.5 72zM1337 686q0 318 -135.5 496t-359.5 178
q-219 0 -359.5 -182.5t-140.5 -487.5q0 -306 139 -493t359 -187q217 0 357 180.5t140 495.5zM772 1864h117l231 -348h-57l-234 208l-231 -208h-59z" />
    <glyph glyph-name="Otilde" unicode="&#xd5;" horiz-adv-x="1675" 
d="M850 1403q140 0 272 -47.5t234 -136.5q229 -198 229 -535q0 -146 -56.5 -281t-156.5 -231q-100 -94 -243.5 -149.5t-286.5 -55.5q-316 0 -531 197q-221 199 -221 504q0 263 162 458q111 133 265.5 205t332.5 72zM1337 686q0 318 -135.5 496t-359.5 178
q-219 0 -359.5 -182.5t-140.5 -487.5q0 -306 139 -493t359 -187q217 0 357 180.5t140 495.5zM1065 1812h51q-40 -204 -194 -204q-29 0 -74 10l-107 27q-24 6 -57 6t-54.5 -22t-35.5 -68h-51q38 213 198 213q34 0 64 -9l108 -28q46 -11 56 -11q38 0 59.5 20t36.5 66z" />
    <glyph glyph-name="Odieresis" unicode="&#xd6;" horiz-adv-x="1675" 
d="M850 1403q140 0 272 -47.5t234 -136.5q229 -198 229 -535q0 -146 -56.5 -281t-156.5 -231q-100 -94 -243.5 -149.5t-286.5 -55.5q-316 0 -531 197q-221 199 -221 504q0 263 162 458q111 133 265.5 205t332.5 72zM1337 686q0 318 -135.5 496t-359.5 178
q-219 0 -359.5 -182.5t-140.5 -487.5q0 -306 139 -493t359 -187q217 0 357 180.5t140 495.5zM639 1769q40 0 70 -30t30 -70q0 -42 -29 -71t-71 -29q-41 0 -69.5 28.5t-28.5 71.5q0 40 29 70t69 30zM1022 1769q40 0 69 -30t29 -70q0 -43 -28.5 -71.5t-69.5 -28.5
q-42 0 -71 29t-29 71q0 40 30 70t70 30z" />
    <glyph glyph-name="multiply" unicode="&#xd7;" horiz-adv-x="1705" 
d="M381 1169l477 -477l475 477l82 -82l-475 -477l475 -475l-82 -82l-475 475l-477 -475l-80 82l475 475l-475 477z" />
    <glyph glyph-name="Oslash" unicode="&#xd8;" horiz-adv-x="1675" 
d="M1370 1554h105l-187 -278q156 -115 230.5 -255.5t74.5 -324.5q0 -213 -100 -381.5t-271 -260t-380 -91.5q-194 0 -383 98l-183 -264h-98l205 309q-142 104 -215.5 251t-73.5 325q0 134 53.5 262t153.5 232q107 114 248.5 172.5t304.5 58.5q196 0 358 -86zM1157 1239
q-119 125 -305 125q-225 0 -365.5 -184t-140.5 -490q0 -276 121 -465zM1217 1176l-697 -1022q132 -144 326 -144q215 0 357.5 178.5t142.5 475.5q0 176 -34.5 307.5t-94.5 204.5z" />
    <glyph glyph-name="Ugrave" unicode="&#xd9;" horiz-adv-x="1658" 
d="M1137 1374q85 -6 202 -6q144 0 226 6v-49q-12 2 -35 2q-28 0 -50 -3.5t-38 -13t-27 -18.5t-18 -27.5t-11 -31t-5.5 -39t-2 -42t-0.5 -48.5v-543q0 -157 -28 -266t-92.5 -184t-169 -109.5t-257.5 -34.5q-274 0 -406 106.5t-132 329.5v736q0 57 -6.5 89t-28.5 55
t-59.5 31.5t-102.5 10.5v47q128 -8 303 -8t303 8v-47h-30q-100 0 -133 -44.5t-33 -141.5v-707q0 -201 90 -297t285 -96q229 0 334.5 114t105.5 357v594q0 59 -2.5 90t-12 61t-30 42.5t-53.5 20t-86 7.5v49zM774 1815l287 -299h-66l-329 204q-64 42 -64 82q0 30 21 51t51 21
q41 0 100 -59z" />
    <glyph glyph-name="Uacute" unicode="&#xda;" horiz-adv-x="1658" 
d="M1137 1374q85 -6 202 -6q144 0 226 6v-49q-12 2 -35 2q-28 0 -50 -3.5t-38 -13t-27 -18.5t-18 -27.5t-11 -31t-5.5 -39t-2 -42t-0.5 -48.5v-543q0 -157 -28 -266t-92.5 -184t-169 -109.5t-257.5 -34.5q-274 0 -406 106.5t-132 329.5v736q0 57 -6.5 89t-28.5 55
t-59.5 31.5t-102.5 10.5v47q128 -8 303 -8t303 8v-47h-30q-100 0 -133 -44.5t-33 -141.5v-707q0 -201 90 -297t285 -96q229 0 334.5 114t105.5 357v594q0 59 -2.5 90t-12 61t-30 42.5t-53.5 20t-86 7.5v49zM1106 1720l-330 -204h-67l288 299q31 31 53 45t46 14
q30 0 50.5 -21t20.5 -51q0 -42 -61 -82z" />
    <glyph glyph-name="Ucircumflex" unicode="&#xdb;" horiz-adv-x="1658" 
d="M1137 1374q85 -6 202 -6q144 0 226 6v-49q-12 2 -35 2q-28 0 -50 -3.5t-38 -13t-27 -18.5t-18 -27.5t-11 -31t-5.5 -39t-2 -42t-0.5 -48.5v-543q0 -157 -28 -266t-92.5 -184t-169 -109.5t-257.5 -34.5q-274 0 -406 106.5t-132 329.5v736q0 57 -6.5 89t-28.5 55
t-59.5 31.5t-102.5 10.5v47q128 -8 303 -8t303 8v-47h-30q-100 0 -133 -44.5t-33 -141.5v-707q0 -201 90 -297t285 -96q229 0 334.5 114t105.5 357v594q0 59 -2.5 90t-12 61t-30 42.5t-53.5 20t-86 7.5v49zM827 1864h117l232 -348h-58l-233 208l-232 -208h-59z" />
    <glyph glyph-name="Udieresis" unicode="&#xdc;" horiz-adv-x="1658" 
d="M1137 1374q85 -6 202 -6q144 0 226 6v-49q-12 2 -35 2q-28 0 -50 -3.5t-38 -13t-27 -18.5t-18 -27.5t-11 -31t-5.5 -39t-2 -42t-0.5 -48.5v-543q0 -157 -28 -266t-92.5 -184t-169 -109.5t-257.5 -34.5q-274 0 -406 106.5t-132 329.5v736q0 57 -6.5 89t-28.5 55
t-59.5 31.5t-102.5 10.5v47q128 -8 303 -8t303 8v-47h-30q-100 0 -133 -44.5t-33 -141.5v-707q0 -201 90 -297t285 -96q229 0 334.5 114t105.5 357v594q0 59 -2.5 90t-12 61t-30 42.5t-53.5 20t-86 7.5v49zM694 1769q40 0 70.5 -30t30.5 -70q0 -42 -29.5 -71t-71.5 -29
q-41 0 -69.5 28.5t-28.5 71.5q0 40 29 70t69 30zM1077 1769q40 0 69.5 -30t29.5 -70q0 -43 -29 -71.5t-70 -28.5q-42 0 -71 29t-29 71q0 40 30 70t70 30z" />
    <glyph glyph-name="Yacute" unicode="&#xdd;" horiz-adv-x="1327" 
d="M1319 1372v-47h-10q-46 0 -81 -21t-51.5 -43t-50.5 -78q-2 -3 -3.5 -5t-3 -5t-3.5 -6l-377 -612v-326q0 -75 14.5 -111.5t56.5 -54.5t128 -20v-45q-125 8 -305 8q-178 0 -303 -8v45q65 2 103 10.5t59.5 31.5t28.5 55.5t7 88.5v312l-333 604q-57 106 -81 133
q-43 49 -116 49q-5 0 -14.5 -1t-14.5 -1v47q180 -8 269 -8q140 0 307 8v-47h-31q-68 0 -97.5 -16t-29.5 -60q0 -30 39 -106l281 -549l196 328q58 97 81.5 138t45 92.5t21.5 84.5q0 49 -27.5 68.5t-95.5 19.5h-13v47q99 -6 203 -6q78 0 201 6zM877 1720l-330 -204h-68
l289 299q31 31 52.5 45t45.5 14q30 0 51 -21t21 -51q0 -42 -61 -82z" />
    <glyph glyph-name="Thorn" unicode="&#xde;" horiz-adv-x="1222" 
d="M96 1372q128 -8 303 -8t303 8v-47q-65 -2 -102.5 -10.5t-59 -31.5t-28 -55t-6.5 -89v-78q111 6 153 6q248 0 383.5 -96.5t135.5 -268.5t-140 -270t-395 -98q-57 0 -137 6v-111q0 -57 6.5 -89t28 -55t59 -31.5t102.5 -10.5v-45q-125 8 -303 8t-303 -8v45q65 2 102.5 10.5
t59.5 31.5t28.5 55t6.5 89v910q0 57 -6.5 89t-28.5 55t-59.5 31.5t-102.5 10.5v47zM506 393q95 -10 133 -10q153 0 229 77.5t76 237.5q0 165 -80 245.5t-243 80.5q-60 0 -87.5 -15.5t-27.5 -54.5v-561z" />
    <glyph glyph-name="germandbls" unicode="&#xdf;" horiz-adv-x="1157" 
d="M709 821v-14q168 -32 259 -146t91 -292q0 -187 -93.5 -295.5t-248.5 -108.5q-97 0 -152 36.5t-55 90.5q0 33 22 53.5t56 20.5q60 0 69 -68q4 -27 6 -37t8.5 -24t18.5 -18.5t31 -4.5q75 0 108 89.5t33 279.5q0 177 -40.5 269t-143.5 120q-19 5 -42 7.5t-39 3t-30.5 2
t-22 6.5t-7.5 16q0 15 13.5 19.5t45.5 7t53 8.5q65 17 95 82t30 186q0 303 -192 303q-101 0 -154 -77t-53 -228v-1108q-89 6 -137 6q-82 0 -181 -8v43q80 2 114 24t34 78v33v911q0 169 104.5 268t268.5 99q169 0 271.5 -92.5t102.5 -243.5q0 -105 -62.5 -182t-180.5 -115z
" />
    <glyph glyph-name="agrave" unicode="&#xe0;" horiz-adv-x="1011" 
d="M813 688v-520q0 -54 18 -82.5t50 -28.5q14 0 27 6t20.5 12t27.5 23l27 -28q-63 -99 -180 -99q-61 0 -109.5 40t-60.5 104q-72 -68 -162.5 -105t-175.5 -37q-107 0 -164 49.5t-57 137.5q0 98 81 170.5t255 140.5l108 41q15 6 36 13.5t30 11t22 10t18 11.5t10.5 14t7 19.5
t1.5 26.5v72q0 100 -45.5 146.5t-157.5 46.5q-73 0 -119.5 -26.5t-54.5 -72.5q-1 -4 -3 -18.5t-3 -18.5t-4 -15.5t-5.5 -15.5t-7.5 -12.5t-11 -11.5t-14.5 -7t-19.5 -5.5t-24 -1.5q-29 0 -48.5 22t-19.5 54q0 71 93.5 120.5t261.5 49.5q180 0 266 -58t86 -178zM639 516
q-197 -78 -286 -149.5t-89 -163.5q0 -72 37.5 -112t106.5 -40q31 0 69.5 13t75 36.5t61.5 62.5t25 85v268zM371 1335l286 -299h-65l-330 205q-63 41 -63 82q0 30 20.5 51t50.5 21q41 0 101 -60z" />
    <glyph glyph-name="aacute" unicode="&#xe1;" horiz-adv-x="1011" 
d="M813 688v-520q0 -54 18 -82.5t50 -28.5q14 0 27 6t20.5 12t27.5 23l27 -28q-63 -99 -180 -99q-61 0 -109.5 40t-60.5 104q-72 -68 -162.5 -105t-175.5 -37q-107 0 -164 49.5t-57 137.5q0 98 81 170.5t255 140.5l108 41q15 6 36 13.5t30 11t22 10t18 11.5t10.5 14t7 19.5
t1.5 26.5v72q0 100 -45.5 146.5t-157.5 46.5q-73 0 -119.5 -26.5t-54.5 -72.5q-1 -4 -3 -18.5t-3 -18.5t-4 -15.5t-5.5 -15.5t-7.5 -12.5t-11 -11.5t-14.5 -7t-19.5 -5.5t-24 -1.5q-29 0 -48.5 22t-19.5 54q0 71 93.5 120.5t261.5 49.5q180 0 266 -58t86 -178zM639 516
q-197 -78 -286 -149.5t-89 -163.5q0 -72 37.5 -112t106.5 -40q31 0 69.5 13t75 36.5t61.5 62.5t25 85v268zM702 1241l-329 -205h-68l289 299q32 32 53 46t45 14q30 0 51 -21t21 -51q0 -41 -62 -82z" />
    <glyph glyph-name="acircumflex" unicode="&#xe2;" horiz-adv-x="1011" 
d="M813 688v-520q0 -54 18 -82.5t50 -28.5q14 0 27 6t20.5 12t27.5 23l27 -28q-63 -99 -180 -99q-61 0 -109.5 40t-60.5 104q-72 -68 -162.5 -105t-175.5 -37q-107 0 -164 49.5t-57 137.5q0 98 81 170.5t255 140.5l108 41q15 6 36 13.5t30 11t22 10t18 11.5t10.5 14t7 19.5
t1.5 26.5v72q0 100 -45.5 146.5t-157.5 46.5q-73 0 -119.5 -26.5t-54.5 -72.5q-1 -4 -3 -18.5t-3 -18.5t-4 -15.5t-5.5 -15.5t-7.5 -12.5t-11 -11.5t-14.5 -7t-19.5 -5.5t-24 -1.5q-29 0 -48.5 22t-19.5 54q0 71 93.5 120.5t261.5 49.5q180 0 266 -58t86 -178zM639 516
q-197 -78 -286 -149.5t-89 -163.5q0 -72 37.5 -112t106.5 -40q31 0 69.5 13t75 36.5t61.5 62.5t25 85v268zM424 1384h117l231 -348h-57l-234 209l-231 -209h-60z" />
    <glyph glyph-name="atilde" unicode="&#xe3;" horiz-adv-x="1011" 
d="M813 688v-520q0 -54 18 -82.5t50 -28.5q14 0 27 6t20.5 12t27.5 23l27 -28q-63 -99 -180 -99q-61 0 -109.5 40t-60.5 104q-72 -68 -162.5 -105t-175.5 -37q-107 0 -164 49.5t-57 137.5q0 98 81 170.5t255 140.5l108 41q15 6 36 13.5t30 11t22 10t18 11.5t10.5 14t7 19.5
t1.5 26.5v72q0 100 -45.5 146.5t-157.5 46.5q-73 0 -119.5 -26.5t-54.5 -72.5q-1 -4 -3 -18.5t-3 -18.5t-4 -15.5t-5.5 -15.5t-7.5 -12.5t-11 -11.5t-14.5 -7t-19.5 -5.5t-24 -1.5q-29 0 -48.5 22t-19.5 54q0 71 93.5 120.5t261.5 49.5q180 0 266 -58t86 -178zM639 516
q-197 -78 -286 -149.5t-89 -163.5q0 -72 37.5 -112t106.5 -40q31 0 69.5 13t75 36.5t61.5 62.5t25 85v268zM717 1333h51q-40 -205 -195 -205q-23 0 -73 11l-107 26q-24 6 -57 6t-54.5 -22t-35.5 -68h-51q38 213 198 213q37 0 64 -8l108 -29q42 -10 56 -10q38 0 59.5 20
t36.5 66z" />
    <glyph glyph-name="adieresis" unicode="&#xe4;" horiz-adv-x="1011" 
d="M813 688v-520q0 -54 18 -82.5t50 -28.5q14 0 27 6t20.5 12t27.5 23l27 -28q-63 -99 -180 -99q-61 0 -109.5 40t-60.5 104q-72 -68 -162.5 -105t-175.5 -37q-107 0 -164 49.5t-57 137.5q0 98 81 170.5t255 140.5l108 41q15 6 36 13.5t30 11t22 10t18 11.5t10.5 14t7 19.5
t1.5 26.5v72q0 100 -45.5 146.5t-157.5 46.5q-73 0 -119.5 -26.5t-54.5 -72.5q-1 -4 -3 -18.5t-3 -18.5t-4 -15.5t-5.5 -15.5t-7.5 -12.5t-11 -11.5t-14.5 -7t-19.5 -5.5t-24 -1.5q-29 0 -48.5 22t-19.5 54q0 71 93.5 120.5t261.5 49.5q180 0 266 -58t86 -178zM639 516
q-197 -78 -286 -149.5t-89 -163.5q0 -72 37.5 -112t106.5 -40q31 0 69.5 13t75 36.5t61.5 62.5t25 85v268zM291 1290q40 0 70 -30t30 -70q0 -42 -29 -71t-71 -29q-41 0 -69.5 28.5t-28.5 71.5q0 40 29 70t69 30zM674 1290q40 0 69 -30t29 -70q0 -43 -28.5 -71.5t-69.5 -28.5
q-42 0 -71.5 29t-29.5 71q0 40 30.5 70t70.5 30z" />
    <glyph glyph-name="aring" unicode="&#xe5;" horiz-adv-x="1011" 
d="M492 1473q99 0 169 -71t70 -171t-69 -170t-170 -70q-100 0 -171 69.5t-71 170.5t71 171.5t171 70.5zM489 1382q-61 0 -105 -44t-44 -105q0 -63 43 -107.5t106 -44.5q62 0 106 44.5t44 107.5q0 61 -44 105t-106 44zM813 688v-520q0 -54 18 -82.5t50 -28.5q14 0 27 6
t20.5 12t27.5 23l27 -28q-63 -99 -180 -99q-61 0 -109.5 40t-60.5 104q-72 -68 -162.5 -105t-175.5 -37q-107 0 -164 49.5t-57 137.5q0 98 81 170.5t255 140.5l108 41q15 6 36 13.5t30 11t22 10t18 11.5t10.5 14t7 19.5t1.5 26.5v72q0 100 -45.5 146.5t-157.5 46.5
q-73 0 -119.5 -26.5t-54.5 -72.5q-1 -4 -3 -18.5t-3 -18.5t-4 -15.5t-5.5 -15.5t-7.5 -12.5t-11 -11.5t-14.5 -7t-19.5 -5.5t-24 -1.5q-29 0 -48.5 22t-19.5 54q0 71 93.5 120.5t261.5 49.5q180 0 266 -58t86 -178zM639 516q-197 -78 -286 -149.5t-89 -163.5
q0 -72 37.5 -112t106.5 -40q31 0 69.5 13t75 36.5t61.5 62.5t25 85v268z" />
    <glyph glyph-name="ae" unicode="&#xe6;" horiz-adv-x="1466" 
d="M729 801q116 119 295 119q172 0 270.5 -95.5t98.5 -259.5h-631q-4 -31 -4 -84q0 -200 95 -317t237 -117q134 0 233 123l39 -29q-112 -176 -336 -176q-245 0 -352 189q-206 -191 -395 -191q-99 0 -158.5 54t-59.5 141q0 98 86.5 174.5t264.5 136.5q32 11 68.5 22t52 15.5
t34.5 12.5t24.5 12.5t12 15.5t7.5 22t1 31v131q0 68 -48.5 108t-135.5 40q-86 0 -125.5 -22.5t-46.5 -76.5q-5 -32 -8 -43.5t-11.5 -29t-24 -23.5t-40.5 -6q-33 0 -53.5 20.5t-20.5 51.5q0 70 89.5 122t244.5 52q226 0 297 -123zM772 621h432q4 33 4 61q0 93 -49.5 142.5
t-142.5 49.5q-91 0 -159 -67.5t-85 -185.5zM647 201q-33 81 -33 239v58q-99 -36 -162.5 -66t-111.5 -67t-69 -79.5t-21 -97.5q0 -60 36.5 -97.5t96.5 -37.5q131 0 264 148z" />
    <glyph glyph-name="ccedilla" unicode="&#xe7;" horiz-adv-x="899" 
d="M827 147l31 -41q-128 -137 -334 -137q-203 0 -334 127.5t-131 329.5q0 214 145 357t376 143q118 0 190 -38t72 -95q0 -30 -17 -48t-43 -18q-42 0 -59.5 17t-34.5 61q-16 43 -42 60.5t-87 17.5q-134 0 -214.5 -116.5t-80.5 -322.5q0 -197 83.5 -301t238.5 -104
q127 0 241 108zM453 0h63v-113q54 7 70 7q79 0 126.5 -45t47.5 -119q0 -81 -57.5 -128.5t-161.5 -47.5q-103 0 -293 75l35 78q125 -72 223 -72q123 0 123 93q0 41 -30 65.5t-83 24.5q-16 0 -63 -6v188z" />
    <glyph glyph-name="egrave" unicode="&#xe8;" horiz-adv-x="1015" 
d="M748 621q6 41 6 47q0 100 -56 157.5t-145 57.5q-100 0 -169.5 -70.5t-84.5 -191.5h449zM938 561h-651q-6 -64 -6 -102q0 -183 91.5 -296.5t235.5 -113.5q81 0 140.5 31t123.5 104l37 -39q-124 -176 -358 -176q-209 0 -343 132.5t-134 328.5q0 130 61 243t173.5 183
t248.5 70q167 0 274 -97t107 -249v-19zM442 1335l287 -299h-65l-330 205q-64 42 -64 82q0 30 21 51t51 21q24 0 46.5 -14.5t53.5 -45.5z" />
    <glyph glyph-name="eacute" unicode="&#xe9;" horiz-adv-x="1015" 
d="M748 621q6 41 6 47q0 100 -56 157.5t-145 57.5q-100 0 -169.5 -70.5t-84.5 -191.5h449zM938 561h-651q-6 -64 -6 -102q0 -183 91.5 -296.5t235.5 -113.5q81 0 140.5 31t123.5 104l37 -39q-124 -176 -358 -176q-209 0 -343 132.5t-134 328.5q0 130 61 243t173.5 183
t248.5 70q167 0 274 -97t107 -249v-19zM774 1241l-330 -205h-67l289 299q32 32 53 46t45 14q30 0 51 -21t21 -51q0 -41 -62 -82z" />
    <glyph glyph-name="ecircumflex" unicode="&#xea;" horiz-adv-x="1015" 
d="M748 621q6 41 6 47q0 100 -56 157.5t-145 57.5q-100 0 -169.5 -70.5t-84.5 -191.5h449zM938 561h-651q-6 -64 -6 -102q0 -183 91.5 -296.5t235.5 -113.5q81 0 140.5 31t123.5 104l37 -39q-124 -176 -358 -176q-209 0 -343 132.5t-134 328.5q0 130 61 243t173.5 183
t248.5 70q167 0 274 -97t107 -249v-19zM496 1384h116l232 -348h-58l-233 209l-231 -209h-60z" />
    <glyph glyph-name="edieresis" unicode="&#xeb;" horiz-adv-x="1015" 
d="M748 621q6 41 6 47q0 100 -56 157.5t-145 57.5q-100 0 -169.5 -70.5t-84.5 -191.5h449zM938 561h-651q-6 -64 -6 -102q0 -183 91.5 -296.5t235.5 -113.5q81 0 140.5 31t123.5 104l37 -39q-124 -176 -358 -176q-209 0 -343 132.5t-134 328.5q0 130 61 243t173.5 183
t248.5 70q167 0 274 -97t107 -249v-19zM362 1290q40 0 70.5 -30t30.5 -70q0 -42 -29.5 -71t-71.5 -29q-41 0 -69.5 28.5t-28.5 71.5q0 40 29 70t69 30zM745 1290q40 0 69.5 -30t29.5 -70q0 -42 -29 -71t-70 -29q-42 0 -71 29t-29 71q0 40 30 70t70 30z" />
    <glyph glyph-name="igrave" unicode="&#xec;" horiz-adv-x="587" 
d="M387 944v-768v-29q0 -57 31 -80t108 -26v-43q-130 10 -229 10q-98 0 -225 -10v43q74 3 104.5 25.5t30.5 76.5v33v461v51q0 82 -19 109.5t-94 27.5h-16v41q128 11 309 78zM176 1335l287 -299h-66l-329 205q-64 42 -64 82q0 30 21 51t51 21q24 0 46.5 -14.5t53.5 -45.5z
" />
    <glyph glyph-name="iacute" unicode="&#xed;" horiz-adv-x="587" 
d="M387 944v-768v-29q0 -57 31 -80t108 -26v-43q-130 10 -229 10q-98 0 -225 -10v43q74 3 104.5 25.5t30.5 76.5v33v461v51q0 82 -19 109.5t-94 27.5h-16v41q128 11 309 78zM508 1241l-330 -205h-67l288 299q32 32 53.5 46t45.5 14q30 0 50.5 -21t20.5 -51q0 -42 -61 -82z
" />
    <glyph glyph-name="icircumflex" unicode="&#xee;" horiz-adv-x="587" 
d="M387 944v-768v-29q0 -57 31 -80t108 -26v-43q-130 10 -229 10q-98 0 -225 -10v43q74 3 104.5 25.5t30.5 76.5v33v461v51q0 82 -19 109.5t-94 27.5h-16v41q128 11 309 78zM229 1384h117l232 -348h-58l-233 209l-232 -209h-59z" />
    <glyph glyph-name="idieresis" unicode="&#xef;" horiz-adv-x="587" 
d="M387 944v-768v-29q0 -57 31 -80t108 -26v-43q-130 10 -229 10q-98 0 -225 -10v43q74 3 104.5 25.5t30.5 76.5v33v461v51q0 82 -19 109.5t-94 27.5h-16v41q128 11 309 78zM96 1290q40 0 70.5 -30t30.5 -70q0 -42 -29.5 -71t-71.5 -29q-41 0 -69.5 28.5t-28.5 71.5
q0 40 29 70t69 30zM479 1290q40 0 69.5 -30t29.5 -70q0 -42 -29 -71t-70 -29q-42 0 -71 29t-29 71q0 40 30 70t70 30z" />
    <glyph glyph-name="eth" unicode="&#xf0;" horiz-adv-x="1126" 
d="M231 1366q156 -85 326 -213l301 166l31 -51l-277 -160q197 -171 292 -334.5t95 -347.5q0 -200 -122.5 -327.5t-309.5 -127.5q-193 0 -318.5 118t-125.5 310q0 121 61 220.5t160.5 153.5t212.5 54q89 0 160 -26q-75 161 -180 262l-314 -168l-28 53l294 164
q-88 84 -286 213zM559 788q-110 0 -184 -105t-74 -288q0 -184 68 -284.5t190 -100.5q129 0 196.5 99t67.5 292q0 186 -69.5 286.5t-194.5 100.5z" />
    <glyph glyph-name="ntilde" unicode="&#xf1;" horiz-adv-x="1216" 
d="M348 944q26 -91 29 -213q120 191 338 191q146 0 224.5 -69t78.5 -200v-51v-426v-29q0 -60 32.5 -82t114.5 -24v-43q-153 10 -237 10q-118 0 -238 -10v43q80 2 114 24t34 78v33v465q0 217 -193 217q-106 0 -182 -84t-76 -211v-387v-29q0 -60 33 -82t115 -24v-43
q-153 10 -238 10q-118 0 -238 -10v43q80 2 113 24t33 78l1 5q0 5 0.5 12.5t0.5 15.5v492q0 93 -24 125t-105 32h-19v41q106 0 289 78zM836 1333h51q-40 -205 -195 -205q-24 0 -74 11l-106 26q-24 6 -57 6t-54.5 -22t-35.5 -68h-52q38 213 199 213q36 0 63 -8l109 -29
q42 -10 55 -10q38 0 60 20t37 66z" />
    <glyph glyph-name="ograve" unicode="&#xf2;" horiz-adv-x="1128" 
d="M76 449q0 135 67.5 245t181 171t248.5 61q132 0 243.5 -67.5t174 -174.5t62.5 -225q0 -128 -62 -239.5t-174 -180t-248 -68.5q-212 0 -352.5 134t-140.5 344zM561 885q-130 0 -208.5 -116.5t-78.5 -322.5t75 -319t210 -113q143 0 219 112t76 329q0 207 -78 318.5
t-215 111.5zM446 1335l287 -299h-65l-330 205q-64 42 -64 82q0 30 21 51t51 21q24 0 46.5 -14.5t53.5 -45.5z" />
    <glyph glyph-name="oacute" unicode="&#xf3;" horiz-adv-x="1128" 
d="M76 449q0 135 67.5 245t181 171t248.5 61q132 0 243.5 -67.5t174 -174.5t62.5 -225q0 -128 -62 -239.5t-174 -180t-248 -68.5q-212 0 -352.5 134t-140.5 344zM561 885q-130 0 -208.5 -116.5t-78.5 -322.5t75 -319t210 -113q143 0 219 112t76 329q0 207 -78 318.5
t-215 111.5zM778 1241l-329 -205h-68l289 299q32 32 53 46t45 14q30 0 51 -21t21 -51q0 -41 -62 -82z" />
    <glyph glyph-name="ocircumflex" unicode="&#xf4;" horiz-adv-x="1128" 
d="M76 449q0 135 67.5 245t181 171t248.5 61q132 0 243.5 -67.5t174 -174.5t62.5 -225q0 -128 -62 -239.5t-174 -180t-248 -68.5q-212 0 -352.5 134t-140.5 344zM561 885q-130 0 -208.5 -116.5t-78.5 -322.5t75 -319t210 -113q143 0 219 112t76 329q0 207 -78 318.5
t-215 111.5zM500 1384h116l232 -348h-57l-234 209l-231 -209h-60z" />
    <glyph glyph-name="otilde" unicode="&#xf5;" horiz-adv-x="1128" 
d="M76 449q0 135 67.5 245t181 171t248.5 61q132 0 243.5 -67.5t174 -174.5t62.5 -225q0 -128 -62 -239.5t-174 -180t-248 -68.5q-212 0 -352.5 134t-140.5 344zM561 885q-130 0 -208.5 -116.5t-78.5 -322.5t75 -319t210 -113q143 0 219 112t76 329q0 207 -78 318.5
t-215 111.5zM793 1333h51q-40 -205 -195 -205q-25 0 -74 11l-106 26q-24 6 -57 6t-54.5 -22t-35.5 -68h-52q38 213 199 213q36 0 63 -8l109 -29q42 -10 55 -10q38 0 60 20t37 66z" />
    <glyph glyph-name="odieresis" unicode="&#xf6;" horiz-adv-x="1128" 
d="M76 449q0 135 67.5 245t181 171t248.5 61q132 0 243.5 -67.5t174 -174.5t62.5 -225q0 -128 -62 -239.5t-174 -180t-248 -68.5q-212 0 -352.5 134t-140.5 344zM561 885q-130 0 -208.5 -116.5t-78.5 -322.5t75 -319t210 -113q143 0 219 112t76 329q0 207 -78 318.5
t-215 111.5zM367 1290q40 0 70 -30t30 -70q0 -42 -29 -71t-71 -29q-41 0 -70 29t-29 71q0 40 29.5 70t69.5 30zM750 1290q40 0 69 -30t29 -70q0 -43 -28.5 -71.5t-69.5 -28.5q-42 0 -71.5 29t-29.5 71q0 40 30.5 70t70.5 30z" />
    <glyph glyph-name="divide" unicode="&#xf7;" horiz-adv-x="1705" 
d="M854 1085q47 0 81 -33.5t34 -80.5t-33 -81t-82 -34t-82 33.5t-33 81.5q0 47 34.5 80.5t80.5 33.5zM254 670h1198v-117h-1198v117zM854 365q46 0 80.5 -34t34.5 -81t-33 -81t-82 -34q-47 0 -81 34t-34 81q0 49 34 82t81 33z" />
    <glyph glyph-name="oslash" unicode="&#xf8;" horiz-adv-x="1128" 
d="M877 1126h84l-144 -268q113 -75 172.5 -179.5t59.5 -225.5q0 -207 -143.5 -346.5t-358.5 -139.5q-110 0 -195 39l-135 -246h-82l154 279q-102 64 -162.5 177t-60.5 235q0 95 37 181.5t101 151t157 102.5t200 38q102 0 187 -35zM719 827q-76 58 -160 58
q-138 0 -215.5 -114.5t-77.5 -326.5q0 -188 72 -311zM770 776l-381 -702q64 -64 166 -64q140 0 218.5 114.5t78.5 319.5q0 244 -82 332z" />
    <glyph glyph-name="ugrave" unicode="&#xf9;" horiz-adv-x="1161" 
d="M4 903q126 -4 168 -4q38 0 160 4v-645v-6q0 -211 192 -211q106 0 182 84t76 211v389v37q0 96 -131 96h-16v45q126 -4 170 -4q36 0 158 4v-672v-6q0 -86 24 -117.5t98 -31.5h25v-43q-106 0 -289 -78l-33 207q-117 -185 -333 -185q-170 0 -236.5 78t-66.5 242v428
q0 12 -1 25l-1 12q0 96 -130 96h-16v45zM420 1335l287 -299h-66l-330 205q-63 41 -63 82q0 30 20.5 51t50.5 21q41 0 101 -60z" />
    <glyph glyph-name="uacute" unicode="&#xfa;" horiz-adv-x="1161" 
d="M4 903q126 -4 168 -4q38 0 160 4v-645v-6q0 -211 192 -211q106 0 182 84t76 211v389v37q0 96 -131 96h-16v45q126 -4 170 -4q36 0 158 4v-672v-6q0 -86 24 -117.5t98 -31.5h25v-43q-106 0 -289 -78l-33 207q-117 -185 -333 -185q-170 0 -236.5 78t-66.5 242v428
q0 12 -1 25l-1 12q0 96 -130 96h-16v45zM752 1241l-330 -205h-68l289 299q32 32 53 46t45 14q30 0 51 -21t21 -51q0 -42 -61 -82z" />
    <glyph glyph-name="ucircumflex" unicode="&#xfb;" horiz-adv-x="1161" 
d="M4 903q126 -4 168 -4q38 0 160 4v-645v-6q0 -211 192 -211q106 0 182 84t76 211v389v37q0 96 -131 96h-16v45q126 -4 170 -4q36 0 158 4v-672v-6q0 -86 24 -117.5t98 -31.5h25v-43q-106 0 -289 -78l-33 207q-117 -185 -333 -185q-170 0 -236.5 78t-66.5 242v428
q0 12 -1 25l-1 12q0 96 -130 96h-16v45zM473 1384h117l231 -348h-57l-234 209l-231 -209h-59z" />
    <glyph glyph-name="udieresis" unicode="&#xfc;" horiz-adv-x="1161" 
d="M4 903q126 -4 168 -4q38 0 160 4v-645v-6q0 -211 192 -211q106 0 182 84t76 211v389v37q0 96 -131 96h-16v45q126 -4 170 -4q36 0 158 4v-672v-6q0 -86 24 -117.5t98 -31.5h25v-43q-106 0 -289 -78l-33 207q-117 -185 -333 -185q-170 0 -236.5 78t-66.5 242v428
q0 12 -1 25l-1 12q0 96 -130 96h-16v45zM340 1290q40 0 70 -30t30 -70q0 -42 -29 -71t-71 -29q-41 0 -69.5 28.5t-28.5 71.5q0 40 29 70t69 30zM723 1290q40 0 69 -30t29 -70q0 -43 -28.5 -71.5t-69.5 -28.5q-42 0 -71 29t-29 71q0 40 30 70t70 30z" />
    <glyph glyph-name="yacute" unicode="&#xfd;" horiz-adv-x="954" 
d="M-27 903q104 -8 197 -8q69 0 236 8v-45q-65 -2 -92 -15.5t-27 -51.5q0 -16 14 -56l205 -528l194 471q21 52 21 102q0 41 -25 58.5t-82 19.5v45q122 -8 144 -8q33 0 139 8v-45h-6q-33 0 -61.5 -34.5t-59.5 -110.5l-264 -637q-161 -392 -229.5 -523t-133.5 -131
q-25 0 -40 17t-15 45q0 23 7 40t21.5 29t25 18t31 14.5t26.5 11.5q33 16 88 109.5t94 209.5l33 98l-289 695q-5 12 -14 34.5t-13 32t-12.5 25.5t-17 22.5t-22 15.5t-31.5 13t-42 6v45zM690 1241l-330 -205h-67l289 299q32 32 53 46t45 14q30 0 51 -21t21 -51q0 -41 -62 -82z
" />
    <glyph glyph-name="thorn" unicode="&#xfe;" horiz-adv-x="1232" 
d="M377 1475v-701q96 152 295 152q195 0 321.5 -130t126.5 -339q0 -212 -132 -343.5t-329 -131.5q-166 0 -282 122v-495v-27q0 -60 32.5 -82t114.5 -24v-45q-176 12 -237 12q-62 0 -238 -12v45q80 2 114 24t34 78v31v1644q0 67 -34 95t-114 30v37q102 7 328 60zM377 358
q0 -315 246 -315q134 0 214.5 105.5t80.5 302.5q0 205 -75.5 311t-217.5 106q-61 0 -119 -30.5t-90 -81.5q-25 -40 -32 -90t-7 -131v-177z" />
    <glyph glyph-name="ydieresis" unicode="&#xff;" horiz-adv-x="954" 
d="M-27 903q104 -8 197 -8q69 0 236 8v-45q-65 -2 -92 -15.5t-27 -51.5q0 -16 14 -56l205 -528l194 471q21 52 21 102q0 41 -25 58.5t-82 19.5v45q122 -8 144 -8q33 0 139 8v-45h-6q-33 0 -61.5 -34.5t-59.5 -110.5l-264 -637q-161 -392 -229.5 -523t-133.5 -131
q-25 0 -40 17t-15 45q0 23 7 40t21.5 29t25 18t31 14.5t26.5 11.5q33 16 88 109.5t94 209.5l33 98l-289 695q-5 12 -14 34.5t-13 32t-12.5 25.5t-17 22.5t-22 15.5t-31.5 13t-42 6v45zM279 1290q40 0 70 -30t30 -70q0 -42 -29 -71t-71 -29q-41 0 -70 29t-29 71q0 40 29.5 70
t69.5 30zM662 1290q40 0 69 -30t29 -70q0 -43 -28.5 -71.5t-69.5 -28.5q-42 0 -71.5 29t-29.5 71q0 40 30.5 70t70.5 30z" />
    <glyph glyph-name="dotlessi" unicode="&#x131;" horiz-adv-x="587" 
d="M387 944v-768v-29q0 -57 31 -80t108 -26v-43q-130 10 -229 10q-98 0 -225 -10v43q74 3 104.5 25.5t30.5 76.5v33v461v51q0 82 -19 109.5t-94 27.5h-16v41q128 11 309 78z" />
    <glyph glyph-name="Lslash" unicode="&#x141;" horiz-adv-x="1325" 
d="M96 1372q128 -8 303 -8t303 8v-47q-65 -2 -102.5 -10.5t-59 -31.5t-28 -55t-6.5 -89v-338l373 258v-84l-373 -258v-365v-35q0 -56 3.5 -91t15.5 -68t32.5 -50.5t57 -31t87 -18.5t123.5 -5q213 0 308.5 62.5t105.5 226.5h45v-342q-29 0 -79 2t-70 2q-11 0 -195 1t-358 1
q-369 0 -486 -8v45q65 2 102.5 10.5t59.5 31.5t28.5 55t6.5 89v357l-305 -215v82l305 215v471q0 57 -6.5 89t-28.5 55t-59.5 31.5t-102.5 10.5v47z" />
    <glyph glyph-name="lslash" unicode="&#x142;" horiz-adv-x="585" 
d="M387 1475v-641l193 133v-68l-193 -135v-588v-29q0 -60 33 -82t115 -24v-43q-153 10 -238 10q-118 0 -238 -10v43q80 2 113 24t33 78l1 5q0 5 0.5 12.5t0.5 15.5v471l-201 -137v68l201 137v538q0 67 -35 95t-115 30v37q105 7 330 60z" />
    <glyph glyph-name="OE" unicode="&#x152;" horiz-adv-x="2142" 
d="M1190 1372h731v-295h-41q-9 65 -30 109.5t-51 71t-82.5 40.5t-108 18.5t-144.5 4.5h-54t-40 -2t-31 -3.5t-19 -8.5t-14 -13t-6 -20t-4 -27v-37v-465q17 -2 50 -2q145 0 212 61t78 197h43q-8 -123 -8 -270q0 -146 8 -266h-43q-9 123 -75 175t-207 52q-38 0 -58 -2v-338
v-47q0 -79 10.5 -124t44 -76t91 -41.5t155.5 -10.5q188 0 276 56t109 204h41l-10 -313h-823q-91 0 -232.5 -5t-191.5 -5q-310 0 -493 188.5t-183 499.5q0 208 90 369t251.5 249t369.5 88q36 0 165.5 -6t223.5 -6zM1081 977v59q0 160 -65.5 233.5t-216.5 73.5
q-221 0 -338 -162t-117 -474q0 -324 112.5 -499t315.5 -175q60 0 106 9.5t79 26t55.5 45.5t36 60.5t21 79.5t9.5 93t2 110v520z" />
    <glyph glyph-name="oe" unicode="&#x153;" horiz-adv-x="1695" 
d="M913 143q-71 -82 -168.5 -127t-197.5 -45q-133 0 -244 64.5t-174 175t-63 240.5q0 198 140 336.5t341 138.5q211 0 364 -166q141 160 351 160q169 0 266.5 -95.5t97.5 -259.5h-629q-4 -31 -4 -84q0 -201 94 -317.5t236 -116.5q137 0 236 123l38 -29q-115 -178 -337 -178
q-229 0 -347 180zM549 885q-127 0 -205 -116t-78 -318q0 -210 72.5 -322.5t204.5 -112.5t208 118t76 341q0 192 -78.5 301t-199.5 109zM1008 621h432q4 33 4 61q0 92 -50 142t-143 50q-91 0 -158.5 -67.5t-84.5 -185.5z" />
    <glyph glyph-name="Scaron" unicode="&#x160;" horiz-adv-x="1099" 
d="M844 1298l35 93h32q-6 -91 -6 -177v-34q0 -6 0.5 -24.5t1.5 -54.5t2 -71h-30q-55 167 -138.5 246.5t-210.5 79.5q-122 0 -190 -63t-68 -169q0 -43 15 -78.5t36.5 -59.5t63.5 -49.5t75.5 -41.5t93.5 -43q21 -9 32 -14q85 -37 145 -70.5t113.5 -75.5t85.5 -87.5
t50.5 -104.5t18.5 -129q0 -178 -139 -294t-350 -116q-213 0 -375 143l-20 -90h-33q2 70 2 201q0 142 -2 195h33q39 -192 142 -294t253 -102q140 0 220.5 74.5t80.5 204.5q0 46 -9.5 83.5t-32.5 68.5t-47 53.5t-69.5 47.5t-81.5 41.5t-100 43.5q-188 79 -272 164t-84 227
q0 171 113 277t292 106q83 0 158 -26t164 -81zM252 1864h59l232 -211l233 211h58l-232 -348h-117z" />
    <glyph glyph-name="scaron" unicode="&#x161;" horiz-adv-x="782" 
d="M561 870l39 52h25q-4 -126 -4 -179v-61h-33q-15 87 -76 143t-135 56q-62 0 -101.5 -31t-39.5 -82q0 -58 39 -94.5t147 -95.5q18 -10 57.5 -31.5t55 -30t45.5 -28t42.5 -32.5t31.5 -36t26.5 -45.5t13.5 -53.5t6 -67q0 -133 -81.5 -209t-225.5 -76q-132 0 -229 84l-35 -57
h-18q2 76 2 137q0 13 -1 60.5t-1 82.5h28q21 -120 91.5 -189t164.5 -69q75 0 126.5 44.5t51.5 109.5q0 70 -46 111.5t-162 101.5q-133 71 -192.5 135t-59.5 156q0 110 72 180t188 70q93 0 188 -56zM92 1384h60l231 -210l233 210h58l-232 -348h-116z" />
    <glyph glyph-name="Ydieresis" unicode="&#x178;" horiz-adv-x="1327" 
d="M1319 1372v-47h-10q-46 0 -81 -21t-51.5 -43t-50.5 -78q-2 -3 -3.5 -5t-3 -5t-3.5 -6l-377 -612v-326q0 -75 14.5 -111.5t56.5 -54.5t128 -20v-45q-125 8 -305 8q-178 0 -303 -8v45q65 2 103 10.5t59.5 31.5t28.5 55.5t7 88.5v312l-333 604q-57 106 -81 133
q-43 49 -116 49q-5 0 -14.5 -1t-14.5 -1v47q180 -8 269 -8q140 0 307 8v-47h-31q-68 0 -97.5 -16t-29.5 -60q0 -30 39 -106l281 -549l196 328q58 97 81.5 138t45 92.5t21.5 84.5q0 49 -27.5 68.5t-95.5 19.5h-13v47q99 -6 203 -6q78 0 201 6zM465 1769q40 0 70 -30t30 -70
q0 -42 -29 -71t-71 -29q-41 0 -69.5 28.5t-28.5 71.5q0 40 29 70t69 30zM848 1769q40 0 69 -30t29 -70q0 -43 -28.5 -71.5t-69.5 -28.5q-42 0 -71 29t-29 71q0 40 30 70t70 30z" />
    <glyph glyph-name="Zcaron" unicode="&#x17d;" horiz-adv-x="1204" 
d="M133 1366h957v-29l-785 -1284h381q98 0 162 13t114 48.5t79.5 97t48.5 159.5h36l-22 -371h-1032v33l778 1282h-361q-160 0 -232.5 -52.5t-100.5 -205.5h-37zM303 1864h59l232 -211l233 211h58l-232 -348h-116z" />
    <glyph glyph-name="zcaron" unicode="&#x17e;" horiz-adv-x="903" 
d="M141 899h676v-18l-524 -836h98h66q66 0 101.5 1t76.5 6.5t61.5 16t42 30t33.5 48t21 70.5h36l-16 -217h-737v18l530 838h-217q-116 0 -162 -31t-67 -131h-37zM154 1384h59l231 -210l234 210h57l-231 -348h-117z" />
    <glyph glyph-name="florin" unicode="&#x192;" horiz-adv-x="1124" 
d="M643 782h225l-16 -57h-213q-12 -223 -28.5 -391.5t-42 -317t-61 -249t-84 -173.5t-113 -107t-146.5 -34t-128 36.5t-46 94.5q0 33 23 56.5t59 23.5q26 0 43.5 -14.5t27 -35t19 -41.5t26.5 -35.5t43 -14.5q115 0 149.5 173t60.5 670q12 229 20 359h-189l19 57h176
q28 301 143 462t279 161q82 0 129 -35t47 -90q0 -33 -22 -53.5t-52 -20.5q-29 0 -51 13.5t-35 33t-25 38.5t-28.5 32.5t-38.5 13.5q-79 0 -114.5 -128t-55.5 -427z" />
    <glyph glyph-name="circumflex" unicode="&#x2c6;" 
d="M446 1384h117l232 -348h-58l-233 209l-232 -209h-59z" />
    <glyph glyph-name="caron" unicode="&#x2c7;" 
d="M213 1384h59l232 -210l233 210h58l-232 -348h-117z" />
    <glyph glyph-name="breve" unicode="&#x2d8;" 
d="M211 1346h53q19 -75 76 -108.5t164 -33.5q108 0 165 33.5t74 108.5h52q-20 -133 -94 -202t-197 -69q-122 0 -197.5 69t-95.5 202z" />
    <glyph glyph-name="dotaccent" unicode="&#x2d9;" 
d="M512 1290q40 0 70 -30t30 -70q0 -41 -29.5 -70.5t-70.5 -29.5t-70.5 29.5t-29.5 70.5t30 70.5t70 29.5z" />
    <glyph glyph-name="ring" unicode="&#x2da;" 
d="M512 1497q100 0 171 -70t71 -170t-70.5 -170.5t-171.5 -70.5q-100 0 -170 70t-70 171t70 170.5t170 69.5zM512 1407q-62 0 -106 -44.5t-44 -105.5q0 -63 43.5 -106t106.5 -43q62 0 106 43t44 106q0 61 -44 105.5t-106 44.5z" />
    <glyph glyph-name="ogonek" unicode="&#x2db;" 
d="M635 31h51q-182 -141 -182 -267q0 -55 27.5 -86.5t72.5 -31.5q79 0 119 73l31 -18q-37 -72 -92.5 -111t-120.5 -39q-71 0 -114.5 41.5t-43.5 102.5q0 173 252 336z" />
    <glyph glyph-name="tilde" unicode="&#x2dc;" 
d="M739 1333h52q-40 -205 -195 -205q-24 0 -74 11l-106 26q-24 6 -58 6q-33 0 -54.5 -22t-35.5 -68h-51q38 213 199 213q36 0 63 -8l109 -29q42 -10 55 -10q38 0 59.5 20t36.5 66z" />
    <glyph glyph-name="hungarumlaut" unicode="&#x2dd;" 
d="M582 1251l-205 -215h-58l144 279q23 41 44 60.5t48 19.5q28 0 48 -19t20 -47q0 -34 -41 -78zM856 1251l-203 -215h-59l143 279q23 41 44 60.5t48 19.5q28 0 48 -19t20 -47q0 -34 -41 -78z" />
    <glyph glyph-name="endash" unicode="&#x2013;" 
d="M0 514h1024v-115h-1024v115z" />
    <glyph glyph-name="emdash" unicode="&#x2014;" horiz-adv-x="2048" 
d="M0 514h2048v-115h-2048v115z" />
    <glyph glyph-name="quoteleft" unicode="&#x2018;" horiz-adv-x="507" 
d="M342 1489l23 -33q-76 -54 -116 -118.5t-40 -110.5q0 -20 8 -39q38 20 59 20q43 0 70 -29t27 -73q0 -47 -29.5 -79t-75.5 -32q-67 0 -106 47t-39 129q0 91 61.5 183t157.5 135z" />
    <glyph glyph-name="quoteright" unicode="&#x2019;" horiz-adv-x="507" 
d="M150 944l-23 31q76 54 116 119t40 112q0 16 -9 37q-38 -20 -59 -20q-43 0 -69.5 29t-26.5 75t29.5 77.5t74.5 31.5q65 0 105.5 -45.5t40.5 -120.5q0 -99 -61 -190.5t-158 -135.5z" />
    <glyph glyph-name="quotesinglbase" unicode="&#x201a;" horiz-adv-x="507" 
d="M152 -272l-25 32q76 54 117 119t41 111q0 18 -9 39q-40 -21 -59 -21q-43 0 -69.5 28.5t-26.5 74.5t29.5 78t74.5 32q65 0 105.5 -46.5t40.5 -121.5q0 -98 -61 -189.5t-158 -135.5z" />
    <glyph glyph-name="quotedblleft" unicode="&#x201c;" horiz-adv-x="915" 
d="M317 1489l25 -33q-76 -55 -117 -119t-41 -110q0 -18 9 -39q38 20 59 20q42 0 69 -28.5t27 -73.5q0 -47 -29 -79t-75 -32q-67 0 -105.5 46.5t-38.5 129.5q0 92 60.5 183.5t156.5 134.5zM723 1489l22 -33q-76 -54 -116.5 -118.5t-40.5 -110.5q0 -16 10 -39q38 20 59 20
q42 0 68.5 -28.5t26.5 -73.5q0 -47 -29.5 -79t-75.5 -32q-66 0 -104.5 46.5t-38.5 129.5q0 91 61.5 183t157.5 135z" />
    <glyph glyph-name="quotedblright" unicode="&#x201d;" horiz-adv-x="915" 
d="M152 944l-25 31q76 54 117 119.5t41 111.5q0 16 -9 37q-38 -20 -59 -20q-43 0 -69.5 29t-26.5 75t29.5 77.5t74.5 31.5q65 0 105.5 -45.5t40.5 -120.5q0 -99 -61 -190.5t-158 -135.5zM555 944l-23 31q76 54 116 119t40 112q0 18 -8 37q-38 -20 -59 -20q-43 0 -70 29
t-27 75t30 77.5t75 31.5q65 0 105 -45.5t40 -120.5q0 -99 -61 -190.5t-158 -135.5z" />
    <glyph glyph-name="quotedblbase" unicode="&#x201e;" horiz-adv-x="915" 
d="M152 -272l-25 32q76 54 117 119t41 111q0 18 -9 39q-40 -21 -59 -21q-43 0 -69.5 28.5t-26.5 74.5t29.5 78t74.5 32q65 0 105.5 -46.5t40.5 -121.5q0 -98 -61 -189.5t-158 -135.5zM555 -272l-23 32q76 54 116 118.5t40 111.5q0 20 -8 39q-40 -21 -59 -21q-43 0 -70 28.5
t-27 74.5t30 78t75 32q65 0 105 -46.5t40 -121.5q0 -98 -61 -189.5t-158 -135.5z" />
    <glyph glyph-name="dagger" unicode="&#x2020;" 
d="M555 795l53 -64q-65 -357 -71 -977h-52q-6 608 -71 977l55 64q-15 39 -43 61.5t-59 22.5q-21 0 -76 -29t-86 -29q-39 0 -66.5 26t-27.5 60q0 27 15.5 44.5t37.5 17.5q29 0 39 -14.5t10 -49.5q0 -37 14 -37q9 0 22 15t24.5 33.5t30.5 33.5t40 15q24 0 45.5 -12t34 -27
t25 -27t20.5 -12q7 0 13.5 6t6.5 12q0 24 -25.5 89.5t-25.5 105.5q0 36 13 70.5t25.5 58t12.5 31.5q0 7 -20 31.5t-20 47.5q0 29 17.5 46.5t45.5 17.5t45.5 -17.5t17.5 -46.5q0 -22 -20 -48t-20 -34q0 -7 12.5 -30.5t25.5 -57.5t13 -65q0 -44 -25.5 -110.5t-25.5 -90.5
q0 -6 6 -11t12 -5q10 0 27.5 19.5t43.5 39t56 19.5q27 0 49.5 -24.5t39 -48.5t28.5 -24q11 0 13.5 16t1.5 34.5t11 34.5t39 16q21 0 36 -17.5t15 -44.5q0 -34 -26 -60t-64 -26q-33 0 -89 28t-77 28q-71 0 -102 -82z" />
    <glyph glyph-name="daggerdbl" unicode="&#x2021;" 
d="M582 1126q40 9 49 9q31 0 60 -21.5t49.5 -43t31.5 -21.5q8 0 14.5 9t6.5 21v11q0 19 14 32t35 13q24 0 40.5 -18.5t16.5 -45.5q0 -33 -24.5 -55.5t-63.5 -22.5q-32 0 -97.5 30t-103.5 30q-9 0 -59 -11l49 -59q-6 -30 -24 -116t-28.5 -144t-17.5 -113h-34q-11 81 -39 214
t-33 159l49 59q-50 11 -57 11q-38 0 -104.5 -30t-98.5 -30q-39 0 -63.5 21.5t-24.5 54.5q0 28 17 47t40 19t37 -11.5t14 -29.5q0 -3 -1 -8.5t-1 -8.5q0 -12 6.5 -20t14.5 -8q11 0 31.5 21.5t49.5 43t60 21.5q11 0 51 -9v15q0 35 11 63.5t21.5 46t10.5 25.5q0 7 -19 29
t-19 45q0 24 17 38.5t46 14.5q30 0 46.5 -14.5t16.5 -38.5q0 -23 -19 -45.5t-19 -28.5q0 -8 11.5 -26t22.5 -47.5t11 -65.5v-11zM442 31q-40 -8 -45 -8q-27 0 -51.5 13t-39.5 28.5t-30 28.5t-24 13q-8 0 -14.5 -7.5t-6.5 -20.5v-10q0 -19 -14.5 -32t-34.5 -13
q-24 0 -40.5 18t-16.5 45q0 33 23.5 55.5t58.5 22.5q37 0 103.5 -30t103.5 -30q22 0 59 9l-49 63q7 35 25 122.5t28.5 143t16.5 105.5h36q6 -51 17.5 -111t27.5 -137t25 -123l-49 -63q38 -9 57 -9q37 0 103 30t104 30q34 0 59 -23t25 -55q0 -26 -17 -44.5t-40 -18.5
q-51 0 -51 38q0 3 1 9t1 8q0 11 -7 19.5t-14 8.5q-11 0 -26 -13t-29.5 -28.5t-39 -28.5t-50.5 -13q-7 0 -47 8v-19q0 -33 -11 -60t-21.5 -44.5t-10.5 -26.5q0 -7 19 -29t19 -45q0 -24 -17 -38.5t-46 -14.5t-46 14.5t-17 38.5q0 23 19 45.5t19 28.5q0 8 -10.5 25t-21.5 45
t-11 63l-1 6q-1 6 -1 11z" />
    <glyph glyph-name="bullet" unicode="&#x2022;" horiz-adv-x="1208" 
d="M307 762q0 123 87 209t210 86q122 0 208.5 -86t86.5 -209q0 -122 -87 -209.5t-210 -87.5t-209 87t-86 210z" />
    <glyph glyph-name="ellipsis" unicode="&#x2026;" horiz-adv-x="2048" 
d="M342 215q47 0 81 -34t34 -81t-33 -80.5t-82 -33.5q-48 0 -81.5 32.5t-33.5 81.5q0 47 34 81t81 34zM1024 215q47 0 81 -34t34 -81t-33 -80.5t-82 -33.5q-48 0 -81.5 32.5t-33.5 81.5q0 47 34 81t81 34zM1708 215q47 0 81 -34t34 -81t-33 -80.5t-82 -33.5
q-48 0 -81.5 32.5t-33.5 81.5q0 47 34 81t81 34z" />
    <glyph glyph-name="perthousand" unicode="&#x2030;" horiz-adv-x="2412" 
d="M1237 1473h76l-920 -1575h-88l813 1386q-109 -70 -248 -70q-90 0 -178 39q21 -79 21 -153q0 -61 -23 -142t-65 -155q-111 -193 -293 -193q-121 0 -201 87.5t-80 226.5q0 127 62.5 239t164 177t211.5 65q16 0 30.5 -1t28.5 -5t23.5 -6t22.5 -9.5t18.5 -9.5t18.5 -11.5
t15 -11t16 -13.5l14 -11q75 -63 192 -63q114 0 215.5 56.5t153.5 152.5zM670 1120q0 106 -46 171t-112 65q-77 0 -149.5 -74.5t-117 -195.5t-44.5 -250q0 -77 45.5 -128t115.5 -51q121 0 214.5 138t93.5 325zM911 287q0 131 61.5 242.5t163 175t218.5 63.5q105 0 164 -73.5
t59 -211.5q0 -140 -52 -260.5t-136 -189t-177 -68.5q-128 0 -214.5 87.5t-86.5 234.5zM1692 287q0 98 36 187.5t95.5 153.5t140.5 102t168 38q105 0 164 -73.5t59 -211.5q0 -140 -51.5 -260t-135.5 -189t-177 -69q-128 0 -213.5 87.5t-85.5 234.5zM1374 721
q-127 0 -215 -162q-45 -80 -70.5 -173t-25.5 -157q0 -209 168 -209q119 0 213 137.5t94 334.5q0 106 -46.5 167.5t-117.5 61.5zM2154 721q-127 0 -215 -162q-45 -80 -70.5 -173t-25.5 -157q0 -209 166 -209q119 0 213 137.5t94 334.5q0 106 -45.5 167.5t-116.5 61.5z" />
    <glyph glyph-name="guilsinglleft" unicode="&#x2039;" horiz-adv-x="569" 
d="M256 463q67 -80 117 -148.5t71 -105t21 -47.5q0 -15 -14 -15q-10 0 -45.5 36t-120.5 118t-183 162q97 79 181.5 160.5t120.5 118t47 36.5q14 0 14 -14q0 -11 -21 -47.5t-71 -105t-117 -148.5z" />
    <glyph glyph-name="guilsinglright" unicode="&#x203a;" horiz-adv-x="569" 
d="M463 463q-98 -79 -181.5 -160.5t-118.5 -118.5t-46 -37q-15 0 -15 15q0 11 20.5 47.5t71 105.5t117.5 148q-67 79 -117.5 148t-71 105.5t-20.5 47.5q0 14 15 14q11 0 46 -36t118.5 -117.5t181.5 -161.5z" />
    <glyph glyph-name="fraction" unicode="&#x2044;" horiz-adv-x="342" 
d="M598 1403h84l-938 -1436h-86z" />
    <glyph glyph-name="trademark" unicode="&#x2122;" horiz-adv-x="1683" 
d="M256 1438h440l11 -178h-25q-8 78 -40.5 114.5t-96.5 36.5h-21v-426q0 -50 45 -53l31 -2v-27h-248v27l31 2q45 3 45 53v426h-20q-64 0 -97 -36.5t-41 -114.5h-26zM788 1438h183l141 -400l148 400h174v-25l-29 -2q-47 -3 -47 -53v-373q0 -50 47 -53l29 -2v-27h-236v27l31 2
q45 3 45 53v395l-178 -479h-15l-174 479v-395q0 -24 13 -37.5t34 -15.5l31 -2v-27h-197v27l33 2q45 3 45 53v371q0 24 -13 37.5t-34 15.5l-31 2v27z" />
    <glyph glyph-name="minus" unicode="&#x2212;" horiz-adv-x="1705" 
d="M254 670h1198v-119h-1198v119z" />
    <glyph glyph-name="fi" unicode="&#xfb01;" horiz-adv-x="1230" 
d="M387 1087v-225h410q153 0 237 23q0 -17 -1 -43t-1 -35v-66v-565v-29q0 -57 31 -80t108 -26v-43q-130 10 -229 10q-98 0 -225 -10v43q74 3 104.5 25.5t30.5 76.5v33v531q0 68 -13.5 87t-64.5 19h-387v-637v-29q0 -60 33 -82t115 -24v-43q-153 10 -238 10q-118 0 -238 -10
v43q80 2 114 24t34 78v33v637h-152v53h152v131q0 465 436 465q157 0 246.5 -42t89.5 -107q0 -66 -78 -66q-17 0 -29 4.5t-20 15t-12 18.5t-10 25.5t-9 24.5q-36 82 -174 82q-146 0 -203 -78.5t-57 -251.5z" />
    <glyph glyph-name="fl" unicode="&#xfb02;" horiz-adv-x="1230" 
d="M866 1397q65 13 166 47q0 -21 -1 -53t-1 -43q0 -30 1 -69t1 -48v-1055v-29q0 -57 31 -80t108 -26v-43q-130 10 -229 10q-98 0 -225 -10v43q74 3 104.5 25.5t30.5 76.5v33v637h-465v-637v-29q0 -60 33 -82t115 -24v-43q-153 10 -238 10q-118 0 -238 -10v43q80 2 114 24
t34 78v33v637h-152v53h152v131q0 229 107 347t307 118q129 0 245 -65zM852 1184q0 113 -58.5 171t-166.5 58q-124 0 -182 -80.5t-58 -245.5v-223h465v320z" />
    </font>
</defs>
</svg>
